<svg
   version="1.0"
   viewBox="0 0 2663.2965 2094.968"
   id="svg104580">
  <g
     id="g104566"
     transform="translate(-2.538944,-12.664859)">
    <path
       d="m 1893,822 -7,75 c -18,196 -164,486 -289,573 -23,16 -61,43 -84,60 -77,57 -153,47 -187,-25 -9,-19 -27,-46 -40,-60 -30,-32 -46,-88 -46,-161 0,-42 -3,-55 -10,-44 -5,8 -10,31 -10,51 0,22 -11,53 -30,82 l -30,47 h 36 c 45,0 35,16 -16,25 -30,5 -54,21 -107,74 -38,37 -93,79 -123,94 -93,46 -182,30 -226,-40 -10,-15 -19,-29 -20,-31 -2,-3 -226,52 -279,68 -16,6 -75,24 -131,40 -56,17 -118,39 -140,50 -42,22 -71,25 -94,10 -8,-5 -23,-7 -33,-4 -22,7 -32,-18 -18,-44 8,-15 56,-35 173,-72 90,-29 168,-53 173,-55 6,-1 10,-22 8,-46 -1,-24 5,-66 13,-94 20,-62 122,-317 163,-408 l 31,-68 -28,19 c -47,33 -142,39 -142,8 0,-10 98,-91 206,-169 50,-36 94,-42 94,-12 0,7 9,24 21,39 11,14 18,30 15,35 -4,5 3,12 14,16 27,9 26,16 -20,92 -22,37 -60,107 -85,157 -46,94 -184,400 -182,403 1,1 40,-7 87,-18 47,-11 95,-22 108,-24 19,-5 22,-12 22,-51 0,-25 -6,-52 -14,-59 -54,-54 138,-454 283,-590 28,-26 34,-28 52,-16 18,11 24,10 43,-7 118,-108 276,-31 276,135 v 51 l 26,-21 c 14,-12 38,-35 52,-52 109,-124 214,-197 306,-210 33,-5 55,-2 90,13 25,12 46,26 46,31 0,14 41,14 76,1 15,-6 -23,132 -23,132 z m -1003,697 25,-20 -45,7 c -52,7 -54,9 -45,23 10,17 38,13 65,-10 z m 548,12 c 10,-6 6,-10 -15,-14 -15,-3 -37,-9 -48,-12 -16,-6 -16,-3 5,14 27,23 38,25 58,12 z m -406,-154 c 30,-41 67,-104 83,-141 34,-79 56,-76 26,4 -11,30 -19,55 -18,57 7,6 96,-187 116,-251 53,-172 5,-326 -95,-302 -36,9 -170,145 -202,206 -26,49 -17,41 48,-44 32,-42 65,-65 76,-53 3,2 -20,37 -50,77 -110,146 -195,331 -212,459 -7,51 -6,54 12,47 10,-4 48,-10 83,-13 57,-6 64,-4 58,10 -4,11 -1,17 7,17 7,0 37,-33 68,-73 z m 733,-633 c -30,-47 -108,-23 -185,56 -58,60 -129,175 -141,228 -4,20 -19,75 -33,121 -15,46 -26,106 -26,135 0,96 56,144 118,100 31,-22 99,-124 139,-210 18,-41 38,-74 43,-74 19,0 9,47 -25,118 -19,40 -33,72 -31,72 2,0 19,-24 38,-52 67,-104 111,-220 124,-331 l 7.4547,-62.911 c 0,0 -8.4547,-69.089 -28.455,-100.09 z"
       id="number-100" />
  </g>
  <g
     id="g104578"
     transform="translate(-2.538944,-12.664859)">
     <path
        d="M 327,788 C 345,688 431,514 509,416 684,197 935,52 1195,19 c 93,-12 319,-6 405,10 151,29 345,110 345,144 0,9 29,42 65,73 65,56 87,78 162,167 l 40,47 -33,14 c -19,8 -60,19 -91,26 l -58,13 -57,-59 C 1866,343 1706,244 1560,199 c -63,-19 -97,-23 -210,-24 -115,0 -146,4 -210,24 -94,30 -199,82 -243,121 -34,30 -54,39 -42,20 14,-23 -18,-7 -75,36 -68,51 -168,165 -207,235 -15,26 -47,60 -72,78 -25,17 -61,44 -79,59 -53,44 -90,72 -96,72 -3,0 -3,-15 1,-32 z"
        id="ring-top" />
    <path
       d="m 1155,2095 c -44,-7 -96,-18 -115,-25 -19,-6 -59,-15 -87,-20 -103,-17 -173,-61 -303,-189 -66,-65 -120,-123 -120,-129 0,-6 19,-16 43,-22 23,-6 50,-13 60,-16 11,-4 36,13 75,49 174,163 413,246 625,217 144,-19 268,-67 409,-157 21,-13 30,-15 39,-6 17,17 4,30 -80,85 -42,28 -67,47 -56,43 11,-4 34,-12 50,-17 30,-11 135,-85 135,-97 1,-3 12,-19 25,-36 l 24,-29 10,24 c 9,24 11,23 90,-57 135,-138 212,-299 245,-516 17,-105 106,-357 126,-357 14,0 34,167 33,285 0,93 -5,138 -22,200 -52,183 -159,355 -307,495 -105,98 -191,152 -349,220 -145,62 -370,84 -550,55 z"
       id="ring-bottom" />
    <path
       d="m 1945,1461 c -3,-12 -3,-35 0,-52 5,-22 2,-36 -10,-49 -9,-10 -14,-23 -11,-29 4,-5 2,-13 -4,-16 -6,-4 -8,-21 -4,-42 12,-66 82,-267 133,-387 28,-65 50,-120 48,-122 -2,-2 -68,16 -148,41 -159,49 -253,60 -247,28 2,-10 16,-22 33,-28 34,-12 70,-45 70,-65 0,-13 73,-41 210,-81 191,-55 217,-62 485,-133 128,-34 187,-34 159,1 -9,9 -8,17 0,27 15,18 3,27 -54,41 -29,8 -40,16 -40,30 0,19 -18,26 -244,87 l -84,23 -74,195 c -40,107 -96,267 -124,354 -28,88 -59,168 -69,179 -18,18 -18,18 -25,-2 z"
       id="letter-t" />
  </g>
</svg>
