<svg
   viewBox="0 0 87.287193 30.956249"
   version="1.1"
   id="svg18981">
  <g
     id="layer1"
     transform="translate(-45.57999,-123.14458)">
    <path
      d="m 50.122183,141.33468 c 0.584163,-1.63711 1.949479,-5.5364 3.034035,-8.6651 l 1.971921,-5.68854 -0.657028,-1.78594 -0.657027,-1.78594 H 57.853 c 3.879733,0 4.061589,0.0241 4.614203,0.61237 0.776305,0.82634 0.732652,1.34501 -0.378038,4.49185 -1.522223,4.31281 -4.325956,12.34322 -4.938304,14.14422 l -0.562246,1.65365 H 52.824343 49.06007 Z"
      id="letter-b-left" class="primary" />
    <path
      d="m 45.57999,154.026 c 0,-0.0412 0.53534,-1.61874 1.189644,-3.50573 0.654304,-1.88699 1.190085,-3.46066 1.190625,-3.49704 5.4e-4,-0.0364 4.931666,-0.0662 10.958059,-0.0662 h 10.957077 l 0.67255,-1.78594 c 0.369902,-0.98226 1.016307,-2.79797 1.436454,-4.03489 0.726832,-2.13982 0.804458,-2.25299 1.599539,-2.33187 0.459599,-0.0456 0.835636,-0.15278 0.835636,-0.23817 0,-0.0854 -0.43501,-1.328 -0.966687,-2.76136 L 72.4862,133.19875 H 69.642164 66.79813 l 1.163723,-2.04207 c 0.640047,-1.12314 1.234316,-2.41836 1.320596,-2.87828 0.291721,-1.555 -0.786943,-2.75288 -3.991,-4.43206 -0.737275,-0.38639 -0.197065,-0.41674 7.59252,-0.42658 l 8.386271,-0.0106 -0.537597,1.52136 c -0.295677,0.83674 -1.006041,2.87191 -1.578586,4.5226 l -1.04099,3.00124 1.099188,3.15014 1.099185,3.15014 -0.546071,1.52153 c -0.300339,0.83684 -1.211964,3.42653 -2.025833,5.75487 -0.813869,2.32833 -1.786824,5.09653 -2.162122,6.15156 l -0.68236,1.91823 H 60.237522 c -8.061642,0 -14.657532,-0.0337 -14.657532,-0.0748 z"
      id="letter-b-right" class="primary" />
    <path
      d="m 77.594574,153.88237 c 0,-0.12015 0.310848,-1.10242 0.690777,-2.18281 1.199486,-3.41097 4.062817,-11.62508 5.25014,-15.06123 0.628541,-1.81901 1.524399,-4.37885 1.990799,-5.68854 1.439061,-4.04101 1.417587,-3.85657 0.691071,-5.93602 l -0.653058,-1.86919 h 5.01097 c 2.756032,0 5.009235,0.0893 5.007118,0.19844 -0.0021,0.10914 -0.171799,0.67468 -0.377068,1.25677 -0.811573,2.30139 -3.947814,11.29542 -5.028216,14.41979 -0.62901,1.81901 -1.455217,4.19125 -1.83601,5.27164 -0.380796,1.0804 -0.692357,2.1222 -0.692357,2.31511 0,0.28165 1.266167,0.35075 6.427203,0.35075 h 6.427207 l 1.16851,-1.19063 c 0.64268,-0.65484 1.29255,-1.19053 1.44415,-1.19041 0.23687,1.7e-4 2.07687,4.8598 3.18059,8.40031 l 0.35055,1.12448 H 92.120762 c -7.989403,0 -14.526188,-0.0983 -14.526188,-0.21846 z"
      id="letter-l" class="primary" />
    <path
      d="m 100.78893,130.61906 c -0.14266,-0.2355 -2.821439,-7.24705 -2.821439,-7.38495 0,-0.0522 5.321059,-0.064 11.824569,-0.0261 l 11.82457,0.0689 1.36452,3.57188 1.36453,3.57187 -3.99483,0.16342 c -5.88145,0.2406 -19.4227,0.26484 -19.56192,0.035 z"
      id="letter-g-top" class="secondary" />
    <path
      d="m 108.94422,153.7701 c -0.0655,-0.1819 -0.78528,-2.23573 -1.59942,-4.56406 -0.81414,-2.32834 -1.81682,-5.18584 -2.22817,-6.35 -2.31038,-6.53866 -3.18039,-9.09993 -3.18039,-9.36298 0,-0.20181 1.14788,-0.29431 3.65223,-0.29431 h 3.65223 l 0.56064,1.65364 c 0.30836,0.90951 1.17306,3.38005 1.92157,5.49011 0.74851,2.11005 1.56912,4.43177 1.82358,5.15937 l 0.46266,1.32292 4.41459,0.0725 c 2.42802,0.0399 4.41458,0.0235 4.41458,-0.0365 0,-0.47334 -1.93308,-5.38533 -2.20081,-5.59228 -0.18825,-0.14552 -1.09553,-0.8599 -2.01616,-1.5875 l -1.67388,-1.32292 5.10913,-0.072 c 2.81003,-0.0396 5.19165,0.0199 5.29251,0.13229 0.10085,0.11237 0.54412,1.27588 0.98504,2.58556 0.44093,1.30969 1.4804,4.28625 2.30995,6.61459 0.82954,2.32833 1.6691,4.73935 1.86567,5.35781 l 0.35741,1.12448 h -11.9019 c -9.28158,0 -11.92813,-0.0728 -12.02106,-0.33073 z"
      id="letter-g-bottom" class="primary" />
  </g>
</svg>
