<svg
   version="1.1"
   id="Layer_1"
   x="0px"
   y="0px"
   viewBox="0 0 1440.1768 991.48431"
   xml:space="preserve"
   >
   
<!-- <style
   type="text/css"
   id="style9606">
	.st0{fill:#28ABE2;}
</style> -->
<path
   class="st0"
   d="m 1283.918,470.978 c -136.33,-64.59 -299.21,-6.43 -363.8,129.91 -9.43,19.9 -16.16,40.37 -20.51,61.02 l 158.52,75.11 c -3.86,-21.82 -1.31,-44.97 8.89,-66.53 26.15,-55.2 92.09,-78.75 147.29,-52.6 55.2,26.15 78.75,92.1 52.6,147.3 -25.98,54.83 -91.21,78.37 -146.19,53.05 l -292.71,-138.68 0.05,-0.11 -0.63,-0.3 144.12,-304.28 c 53.48,-133.01 -5.27,-286.309999 -136.54,-348.499999 -136.33,-64.59 -299.21,-6.44 -363.8,129.899999 -64.59,136.33 -6.43,299.21 129.9,363.8 19.91,9.43 40.38,16.16 61.03,20.5 l 75.11,-158.53 c -21.82,3.86 -44.98,1.32 -66.52,-8.89 -55.2,-26.15 -78.75,-92.1 -52.6,-147.29 26.15,-55.2 92.11,-78.75 147.3,-52.6 54.83,25.98 78.37,91.22 53.04,146.19 l -137.54,290.3 -306.06,-144.96 c -133.01,-53.48 -286.319999,5.26 -348.499999,136.53 -64.59,136.33 -6.44,299.21 129.899999,363.8 136.33,64.59 299.21,6.43 363.8,-129.9 9.43,-19.9 16.16,-40.38 20.5,-61.02 l -158.53,-75.1 c 3.86,21.81 1.32,44.98 -8.89,66.52 -26.15,55.2 -92.09,78.75 -147.29,52.6 -55.2,-26.15 -78.75,-92.1 -52.6,-147.3 25.98,-54.83 91.22,-78.37 146.19,-53.05 l 292.08,138.38 -0.05,0.11 146.5,69.41 0.01,-0.02 307.31,145.56 c 133.01,53.48 286.31,-5.27 348.5,-136.53 64.61,-136.33 6.45,-299.2 -129.88,-363.8 z"
   id="path9608" />
</svg>
