
<svg
   viewBox="0 0 529.16668 529.16669"
   version="1.1"
   id="svg15533"
>
   <g
     id="layer1"
     transform="translate(180.03546,173.65956)">
     <path
       d="m -180.03546,346.44531 v -9.0618 l 77.12675,-77.1271 77.126745,-77.12708 -8.33577,-8.33262 -8.335769,-8.33261 -68.790976,68.79059 -68.79098,68.79061 v -18.78547 -18.78545 l 59.26667,-59.26621 c 32.596667,-32.59643 59.266669,-59.38613 59.266669,-59.53269 0,-0.14655 -3.54452,-3.80949 -7.87671,-8.13988 l -7.876712,-7.87344 -1.449851,1.49029 c -0.79742,0.81968 -8.236416,7.92258 -16.531104,15.78422 -10.301802,9.764 -26.128492,25.32907 -49.940102,49.11464 l -34.85886,34.8207 v -18.78473 -18.78473 l 41.60542,-41.60605 41.605412,-41.60605 -41.605412,-41.606043 -41.60542,-41.606043 V -72.3906 -173.65956 H -78.7665 22.502464 l 41.606043,41.60542 41.606043,41.605412 41.60605,-41.605412 41.60605,-41.60542 h 18.78473 18.78473 l -34.82121,34.85886 c -23.89116,23.917 -39.26602,39.551181 -48.98165,49.80781 -7.78825,8.221928 -14.89075,15.661096 -15.78335,16.531488 l -1.62287,1.582526 7.87304,7.876329 c 4.33018,4.331978 7.99296,7.876326 8.13951,7.876326 0.14656,0 26.93626,-26.670002 59.53269,-59.266669 l 59.26621,-59.26667 h 18.78545 18.78547 l -68.79061,68.79098 -68.79059,68.790976 8.33261,8.335769 8.33262,8.33577 77.12708,-77.126746 77.1271,-77.126749 h 9.0618 9.06182 v 9.85556 9.85556 l -76.72991,76.73025 -76.72991,76.73025493 7.93898,7.93566417 7.93896,7.9356669 68.79095,-68.790559 68.79093,-68.790557 v 18.85515 18.855151 l -58.97708,59.725915 -58.97711,59.725912 7.84471,7.871354 c 4.31459,4.329245 7.96441,7.871355 8.1107,7.871355 0.14628,0 23.15585,-22.889651 51.13237,-50.86589187 L 349.13123,-51.024664 v 18.784846 18.784846 l -41.60541,41.606044 -41.60542,41.606045 41.60542,41.606053 41.60541,41.60604 V 254.23817 355.50713 H 247.86227 146.59331 L 104.98727,313.90172 63.381217,272.2963 21.775172,313.90172 -19.830872,355.50713 H -38.615718 -57.400564 L -6.5346749,304.64072 C 21.441566,276.6642 44.331217,253.65463 44.331217,253.50835 c 0,-0.14629 -3.54452,-3.80903 -7.87671,-8.13941 l -7.876712,-7.87344 -1.449851,1.49106 c -0.79742,0.82007 -9.307979,8.96509 -18.912354,18.10001 -13.1411457,12.49881 -27.381894,26.53528 -57.546549,56.72101 l -40.084049,40.11205 h -18.785552 -18.78555 l 67.9968,-67.99718 67.9968032,-67.9972 -7.9356641,-7.93896 -7.9356642,-7.93898 -76.7302549,76.72991 -76.73025,76.72991 h -9.85556 -9.85556 z"
       id="path18953" class="primary" />
   </g>
</svg>
