
<svg
  viewBox="0 0 361.24442 361.24442"
  version="1.1"
  id="svg98679"
>
  <g id="layer1" transform="translate(79.805695,34.165787)">
    <path
       d="M 91.820682,326.86898 C 71.726066,325.3375 59.496704,322.99403 43.313741,317.57372 16.001236,308.42569 -7.6830243,293.55289 -28.138348,272.70457 -47.552828,252.91708 -61.54323,230.10589 -70.300784,203.9592 c -6.556923,-19.57646 -9.306908,-36.56726 -9.306908,-57.50278 0,-20.93552 2.749985,-37.92631 9.306908,-57.502771 8.757554,-26.146695 22.747956,-48.957886 42.162436,-68.74537 20.4553237,-20.84832393 44.139584,-35.721126 71.452089,-44.869155 19.57646,-6.556923 36.567256,-9.306908 57.502769,-9.306908 20.93552,0 37.92632,2.749985 57.50278,9.306908 27.3125,9.148029 50.99676,24.02083107 71.45209,44.869155 19.41448,19.787484 33.40488,42.598675 42.16243,68.74537 6.55693,19.576461 9.3069,36.567251 9.3069,57.502771 0,20.93552 -2.74997,37.92632 -9.3069,57.50278 -8.75755,26.14669 -22.74795,48.95788 -42.16243,68.74537 -11.38433,11.60305 -22.64237,20.51692 -36.16883,28.63766 -23.19378,13.92463 -48.88649,22.28828 -76.91104,25.0366 -3.82366,0.37497 -21.747281,0.7282 -24.870828,0.49015 z m 17.418198,-22.38061 c 47.49439,-2.75099 90.39159,-25.77489 118.59129,-63.65063 24.34895,-32.70372 35.1517,-73.9244 29.96847,-114.35252 C 252.31361,83.703071 229.79856,45.20411 195.19783,19.442772 162.53009,-4.8793988 121.25474,-15.713151 80.966272,-10.540168 38.023133,-5.0263276 -0.39723235,17.42258 -26.197136,52.075106 -50.546093,84.778824 -61.348837,125.99951 -56.16561,166.42763 c 5.485033,42.78215 28.000084,81.28111 62.6008079,107.04244 29.4999321,21.96364 66.4823611,33.12211 102.8036821,31.0183 z M 94.290127,291.93527 C 57.54221,289.98329 23.766816,275.06798 -1.8578028,249.47607 -13.604335,237.74453 -21.993881,226.17377 -29.361062,211.54392 c -7.865113,-15.61866 -12.466055,-30.90915 -14.701995,-48.85972 -0.997587,-8.00882 -0.892865,-26.29844 0.196938,-34.39534 3.764968,-27.9725 13.960816,-51.827135 31.589216,-73.907431 C -8.0586797,49.09793 2.8743933,38.04995 8.0686365,33.822053 30.965969,15.184593 57.330293,4.1992065 86.705405,1.0559856 c 5.778591,-0.61832589 22.443625,-0.61832589 28.222225,0 26.20101,2.8035841 49.79576,11.7540004 71.00107,26.9334974 6.58882,4.716512 11.09928,8.600532 17.91657,15.42821 11.74954,11.767438 19.9789,23.148518 27.32254,37.786628 7.4992,14.948182 11.99319,29.712859 14.33134,47.084539 1.0898,8.0969 1.19453,26.38652 0.19694,34.39534 -2.65173,21.28862 -9.31962,40.87724 -19.87526,58.38866 -23.8339,39.53954 -64.59662,65.50103 -110.18765,70.17774 -5.27046,0.54064 -16.98174,0.91633 -21.343053,0.68467 z M 52.83874,219.05808 c 0,-1.42678 -0.09408,-1.74036 -0.423333,-1.41111 -0.291123,0.29113 -2.05395,0.42334 -5.644444,0.42334 h -5.221111 v -2.14788 -2.14788 l 3.88099,0.1194 3.880989,0.11941 v -1.41111 -1.41111 l -3.880989,0.11941 -3.88099,0.1194 v -1.99576 -1.99576 l 5.644924,0.11246 5.64492,0.11247 -3.52e-4,-1.53705 c -3.53e-4,-1.25654 -0.102316,-1.49796 -0.5585,-1.32291 -0.30691,0.11777 -3.600972,0.21405 -7.320139,0.21396 l -6.762118,-1.8e-4 v 7.67309 7.67309 l 7.231944,0.18723 c 3.977569,0.10297 7.271632,0.22203 7.320139,0.26458 0.04838,0.0426 0.08807,-0.74814 0.08807,-1.75709 z m 156.63385,0.33514 3.6e-4,-1.4993 -5.30739,0.10603 -5.30739,0.10603 0.10339,-6.54463 0.10339,-6.54463 -1.76389,2.3e-4 -1.76389,2.3e-4 v 7.67309 7.67309 l 6.87917,0.18769 c 3.78354,0.10323 6.91885,0.22229 6.96736,0.26458 0.0485,0.0423 0.0884,-0.59779 0.0887,-1.42241 z m -211.9494013,0.7232 c -0.5978454,-0.59785 -0.5978454,-14.07771 0,-14.67556 0.329258,-0.32925 -0.078394,-0.42333 -1.8344444,-0.42333 -1.75605,0 -2.1637023,0.0941 -1.8344443,0.42333 0.5978454,0.59785 0.5978454,14.07771 0,14.67556 -0.329258,0.32926 0.078394,0.42333 1.8344443,0.42333 1.7560501,0 2.1637024,-0.0941 1.8344444,-0.42333 z m 7.4116242,-5.13241 -0.1025384,-5.55676 1.0388317,1.05834 c 3.541744,3.60823 8.5148588,9.21488 8.5148588,9.59958 0,0.30712 0.543578,0.45458 1.675695,0.45458 h 1.675694 v -7.76111 -7.76111 l -1.5875,-7.1e-4 -1.5875,-7e-4 0.08748,5.20402 0.08748,5.20433 -4.573379,-4.7625 C 7.6485699,208.0426 5.6595384,205.70104 5.7438522,205.4585 5.8548326,205.13927 5.3402039,205.01749 3.8797569,205.01739 l -2.0174019,-1.5e-4 v 7.76107 7.76107 l 1.5874999,7e-4 1.5874999,7.1e-4 -0.1025419,-5.55676 z m 25.0439291,5.13241 c -0.296771,-0.29677 -0.423333,-2.2557 -0.423333,-6.55231 v -6.12898 l 2.999433,0.11412 2.999436,0.11411 -0.0011,-1.41111 -0.0011,-1.41111 H 27.967485 20.38281 l -2.44e-4,1.41111 -2.47e-4,1.41111 h 3.087201 3.087197 l 0.09696,5.73944 c 0.06012,3.55863 -0.04513,6.00495 -0.276994,6.4382 -0.354164,0.66176 -0.257506,0.69875 1.825674,0.69875 1.710824,0 2.105558,-0.0941 1.7763,-0.42333 z m 29.273576,-2.94474 -0.112812,-3.36965 2.210693,0.10567 2.210692,0.10566 2.039034,2.82222 c 1.121467,1.55223 1.968341,3.02066 1.881939,3.2632 -0.115386,0.3239 0.456717,0.44097 2.154936,0.44097 h 2.312031 l -1.214299,-1.67569 c -0.667862,-0.92163 -1.722519,-2.38699 -2.343676,-3.25634 l -1.129383,-1.58064 0.990717,-0.31748 c 3.027796,-0.97026 4.140125,-4.61882 2.099158,-6.88545 -1.401332,-1.55628 -2.616595,-1.80662 -8.770027,-1.80662 h -5.74397 v 7.76111 7.76111 l 1.763889,7.1e-4 1.763889,7e-4 -0.112811,-3.36965 z m -0.06358,-7.74443 v -1.94028 l 3.615972,0.005 c 4.104178,0.006 5.323512,0.41047 5.488195,1.82095 0.188422,1.61376 -0.948852,2.05442 -5.302108,2.05442 H 59.18874 Z m 18.767777,10.68917 c -0.471728,-0.47173 -0.623563,-10.51888 -0.15875,-10.50472 0.493327,0.015 9.437136,9.97268 9.387807,10.45198 -0.03542,0.34417 0.453277,0.47607 1.763889,0.47607 h 1.812886 v -7.76111 -7.76111 l -1.5875,-3.5e-4 -1.5875,-3.6e-4 0.106059,5.30985 0.106056,5.30984 -4.515778,-4.80889 c -2.483678,-2.64489 -4.493732,-5.03408 -4.466783,-5.30931 0.03708,-0.37868 -0.434968,-0.50043 -1.940278,-0.50043 H 74.88735 v 7.76111 7.76111 h 1.74625 c 1.358194,0 1.652175,-0.0941 1.322917,-0.42333 z m 18.98719,-0.19403 c 0.0043,-0.33955 0.314,-1.29205 0.688308,-2.11667 l 0.680561,-1.4993 h 3.674376 3.67439 l 0.74927,1.80294 c 0.41209,0.99163 0.66202,1.94413 0.55538,2.11667 -0.10664,0.17255 0.76262,0.31372 1.9317,0.31372 h 2.12559 l -0.67448,-1.14653 c -1.51429,-2.57412 -6.37678,-13.46326 -6.20817,-13.90266 0.14019,-0.36533 -0.33553,-0.47303 -2.08939,-0.47303 -1.68839,0 -2.226907,0.11469 -2.09935,0.4471 0.14522,0.37842 -3.306134,8.522 -5.753597,13.57582 l -0.726084,1.4993 h 1.731875 c 1.411266,0 1.73331,-0.11428 1.739621,-0.61736 z m 3.380605,-8.11389 c 0.50051,-1.11566 0.99174,-2.22691 1.09163,-2.46944 0.33035,-0.80211 0.62409,-0.46201 1.75354,2.03032 l 1.11824,2.46759 h -2.43671 -2.436711 z m 19.61507,2.16844 -0.10353,-6.56363 3.014,0.12503 3.01399,0.12502 -6e-5,-1.41111 -4e-5,-1.41111 h -7.58473 -7.58472 l -7e-4,1.41111 -7.1e-4,1.41111 3.01469,-0.11454 3.01469,-0.11455 -0.10345,6.55315 -0.10345,6.55314 h 1.76389 1.76389 l -0.10353,-6.56362 z m 12.71533,6.32917 c -0.33298,-0.13436 -0.44097,-1.97793 -0.44097,-7.52747 0,-5.54954 0.10799,-7.39311 0.44097,-7.52747 0.24253,-0.0979 -0.51153,-0.19063 -1.6757,-0.20613 l -2.11666,-0.0282 0.10215,7.46743 c 0.0794,5.8006 7e-4,7.53184 -0.35278,7.75604 -0.25924,0.16447 0.60734,0.27897 2.01452,0.26618 1.35819,-0.0123 2.271,-0.10252 2.02847,-0.20038 z m 15.83064,-0.31065 c 5.28765,-1.86441 6.8453,-8.66368 2.89933,-12.65584 -3.62727,-3.66974 -11.44715,-3.15211 -14.1531,0.93686 -1.0874,1.64317 -1.49597,5.34503 -0.817,7.40234 0.51651,1.56504 2.67039,3.6463 4.44611,4.29619 1.8723,0.68524 5.71005,0.69554 7.62466,0.0205 z m -6.72154,-2.54306 c -1.68601,-0.85972 -2.568,-2.21391 -2.7397,-4.20651 -0.30043,-3.48624 1.95423,-5.75892 5.71324,-5.75892 3.759,0 6.01366,2.27268 5.71323,5.75892 -0.25968,3.01354 -2.40337,4.82332 -5.71323,4.82332 -0.98289,0 -2.29949,-0.27311 -2.97354,-0.61681 z m 18.04097,-2.46839 -0.10201,-5.55676 1.391,1.41111 c 3.91677,3.9734 8.47431,9.12809 8.30823,9.3968 -0.10353,0.16753 0.71369,0.30459 1.81605,0.30459 1.69286,0 1.9396,-0.078 1.58791,-0.50172 -0.29841,-0.35955 -0.38562,-2.55877 -0.30778,-7.7615 l 0.10861,-7.25979 -1.69652,3.6e-4 c -1.12329,2.6e-4 -1.61707,0.12893 -1.46139,0.38082 0.28945,0.46835 0.41523,9.84943 0.13206,9.84984 -0.49032,7e-4 -9.17041,-9.55096 -8.97167,-9.87251 0.13976,-0.2261 -0.53282,-0.35772 -1.82819,-0.35772 h -2.04929 v 7.76111 7.76111 l 1.5875,3.5e-4 1.5875,3.6e-4 -0.10201,-5.55676 z m 19.12955,5.16662 c -0.13227,-0.21402 0.12362,-1.16652 0.56865,-2.11667 l 0.80913,-1.72754 h 3.57357 3.57357 l 0.77585,1.59693 c 0.42672,0.87832 0.77585,1.83082 0.77585,2.11667 0,0.39616 0.47158,0.51973 1.98348,0.51973 1.53449,0 1.90584,-0.0998 1.64052,-0.44097 -0.77779,-1.00013 -6.80264,-14.43718 -6.61176,-14.74603 0.12281,-0.1987 -0.73068,-0.33522 -2.09562,-0.33522 -1.85092,0 -2.26485,0.0989 -2.1094,0.50401 0.18333,0.47773 -4.45527,11.42993 -5.87508,13.87168 l -0.66667,1.14653 h 1.9492 c 1.331,0 1.87292,-0.12341 1.70871,-0.38912 z m 3.20863,-8.09958 c 0.49774,-0.98226 1.06372,-2.20342 1.25772,-2.71368 0.34713,-0.913 0.36701,-0.89724 1.25132,0.99218 1.78084,3.80492 1.86119,3.50742 -0.94739,3.50742 h -2.46665 z m -79.73895,-27.8569 c 10.17265,-1.13125 19.62439,-4.34334 24.78586,-8.42325 1.00546,-0.79477 1.92958,-1.44503 2.05361,-1.44503 0.12402,0 1.09558,0.79521 2.15902,1.76713 4.11414,3.76009 10.28458,6.48338 17.7161,7.81891 4.95284,0.89009 17.11317,1.07122 22.78263,0.33937 3.92725,-0.50695 12.02611,-1.96256 13.93949,-2.50534 l 1.23948,-0.35161 4.37881,-17.20437 c 2.40835,-9.46241 4.44878,-17.48218 4.5343,-17.82173 0.14632,-0.58095 -0.75754,-0.61736 -15.32315,-0.61736 h -15.47864 l -0.97231,5.73264 c -0.53477,3.15295 -0.96977,6.01045 -0.96667,6.35 0.005,0.56353 0.52855,0.61736 6.00286,0.61736 4.40917,0 5.99722,0.11142 5.99722,0.42079 0,1.15298 -2.63599,13.2191 -2.96909,13.59089 -0.21177,0.23636 -1.97192,0.60785 -3.91144,0.82555 -8.83871,0.99207 -16.90247,-1.13529 -21.33488,-5.62851 -3.64562,-3.69565 -5.00205,-7.40029 -4.9863,-13.61845 0.0119,-4.70121 0.83615,-8.28528 2.83953,-12.34722 3.58116,-7.26093 10.02886,-12.21166 18.8969,-14.5096 8.0652,-2.08989 22.40669,-1.24366 28.09383,1.6577 l 1.34388,0.6856 0.49526,-0.79601 c 0.27239,-0.43781 2.09122,-3.94518 4.04184,-7.79415 l 3.54659,-6.99813 -1.58299,-0.70023 c -2.36863,-1.04776 -7.84306,-2.35045 -12.37301,-2.94428 -5.17559,-0.67846 -14.81239,-0.67569 -20.01066,0.006 -11.70096,1.53387 -22.29561,5.94717 -29.99579,12.49503 l -2.09939,1.78522 -2.50307,-2.48858 c -6.75291,-6.7138 -14.46414,-9.96861 -27.69398,-11.68924 -4.28892,-0.55781 -23.046251,-0.54472 -28.751391,0.0201 -6.33192,0.62683 -10.269819,1.15836 -10.741493,1.44987 -0.319748,0.19761 0.350093,8.79197 2.780728,35.67815 1.761066,19.47981 3.201112,35.60485 3.200103,35.83342 -0.0056,1.27674 21.575468,1.84283 30.866213,0.80964 z M 89.615821,173.71478 c -0.824618,-0.0743 -1.514143,-0.1656 -1.532279,-0.20295 -0.07894,-0.16258 -1.989215,-47.70201 -1.920096,-47.78372 0.224639,-0.26554 5.72734,-0.77052 8.479458,-0.77816 8.929756,-0.0248 16.273646,2.39816 20.785256,6.85762 4.20075,4.15219 5.97663,9.03673 5.9672,16.41274 -0.0104,8.11651 -2.12914,14.03998 -6.63286,18.54371 -2.76966,2.76966 -6.41729,4.80554 -10.63345,5.93493 -3.6817,0.98622 -9.961711,1.42578 -14.513229,1.01583 z m -23.731186,9.51872 c -0.0038,-0.53357 -0.240323,-3.03388 -0.525643,-5.55625 -0.285316,-2.52236 -0.520347,-4.70517 -0.522284,-4.85069 -0.0018,-0.14552 -7.124099,-0.26458 -15.827024,-0.26458 H 33.186183 l -1.592386,-7.96646 c -1.11912,-5.59878 -1.472071,-8.01263 -1.187569,-8.1218 0.222648,-0.0854 6.869224,-0.11209 14.770173,-0.0592 9.404409,0.0629 14.366348,-0.0257 14.368228,-0.25667 0.0014,-0.19403 -0.340324,-3.24996 -0.759781,-6.79097 l -0.762652,-6.43819 H 42.634665 27.247134 l -1.612166,-8.11101 c -0.886692,-4.46106 -1.531496,-8.19168 -1.432898,-8.29028 0.09859,-0.0986 7.783505,-0.17927 17.077572,-0.17927 15.923982,0 16.888392,-0.0356 16.72627,-0.61736 -0.09462,-0.33955 -0.531806,-3.91142 -0.971519,-7.9375 l -0.799475,-7.32014 H 28.231113 c -26.5061614,0 -27.99382869,0.033 -27.81727754,0.61736 0.10258777,0.33955 4.16338784,16.57174 9.02399854,36.07153 4.860611,19.49979 8.990844,35.81135 9.178296,36.24791 l 0.340819,0.79375 h 23.467284 23.467284 l -0.0069,-0.97014 z M 64.127629,91.80833 c 2.726548,-1.041647 3.096806,-1.310096 2.554689,-1.852214 -0.560278,-0.560278 -0.570974,-3.550626 -0.01467,-4.106911 0.329258,-0.329258 -0.371669,-0.423333 -3.154179,-0.423333 -2.004473,0 -3.673383,-0.155117 -3.795543,-0.352778 -0.49397,-0.799264 -0.881945,-0.256099 -0.881945,1.234722 0,1.593772 0.243445,1.908499 0.938562,1.213383 0.205765,-0.205765 1.150327,-0.324828 2.099028,-0.264584 1.65264,0.104945 1.72491,0.153402 1.72491,1.156564 0,0.915491 -0.177281,1.100445 -1.411111,1.472195 -4.331797,1.305158 -8.059247,-0.472592 -8.542312,-4.074121 -0.354143,-2.640344 1.552582,-4.950294 4.543816,-5.504719 1.544944,-0.286357 5.169457,0.662139 5.464069,1.429886 0.319694,0.833109 0.642285,0.606266 1.422982,-1.000648 l 0.736092,-1.515095 -2.341492,-0.689765 c -6.85904,-2.020556 -12.578573,0.597415 -13.023373,5.961115 -0.327367,3.947611 1.596651,6.726064 5.564325,8.035384 1.467866,0.484392 6.022244,0.08088 8.116171,-0.719081 z m 81.668051,0.636288 c 0.77611,-0.212108 2.12548,-0.689949 2.99861,-1.061868 l 1.5875,-0.676215 v -2.728528 -2.728524 l -3.28544,0.112924 c -2.17965,0.07492 -3.45607,-0.02868 -3.79237,-0.307778 -0.42859,-0.355698 -0.50691,-0.162062 -0.50691,1.253187 0,1.407266 0.0799,1.607562 0.50176,1.257469 0.28077,-0.23302 1.25184,-0.368571 2.20486,-0.307777 1.63181,0.104094 1.7031,0.152809 1.7031,1.163842 0,0.97295 -0.14232,1.093247 -1.82577,1.543307 -2.76798,0.739997 -4.88177,0.301953 -6.53876,-1.355033 -1.22802,-1.228013 -1.33686,-1.49721 -1.33686,-3.306364 0,-1.698226 0.15021,-2.140588 1.09056,-3.211583 1.89745,-2.161077 5.64291,-2.474655 8.26933,-0.692319 l 1.22085,0.828492 0.70685,-1.385546 c 0.89334,-1.751093 0.88527,-1.934887 -0.0869,-1.978113 -0.43657,-0.0194 -1.81493,-0.313827 -3.06304,-0.654261 -3.60983,-0.984621 -7.13817,-0.236358 -9.45393,2.004917 -1.38671,1.342107 -1.95602,2.947257 -1.93352,5.451478 0.0196,2.184467 1.19925,4.551094 2.78697,5.591411 2.22544,1.458168 5.92495,1.959804 8.7531,1.186882 z M 72.625353,91.989683 c -0.313739,-0.378033 -0.267832,-0.785915 0.198533,-1.763889 l 0.60664,-1.272145 h 3.42471 3.424707 l 0.531413,1.322917 c 0.368561,0.917504 0.420942,1.458055 0.170925,1.763888 -0.283129,0.34634 0.2355,0.434997 2.416736,0.413121 1.527471,-0.01531 2.571838,-0.110236 2.320815,-0.210929 -0.251023,-0.100697 -1.895665,-3.058234 -3.65476,-6.57231 -2.637218,-5.268274 -3.129132,-6.500075 -2.8038,-7.021015 0.366258,-0.586468 0.201464,-0.631782 -2.297461,-0.631782 -2.288237,0 -2.629525,0.0753 -2.275371,0.502031 0.332743,0.400932 -0.163851,1.732964 -2.465991,6.614583 -1.58545,3.361905 -3.127484,6.390364 -3.426738,6.729913 -0.511842,0.580756 -0.40234,0.617361 1.846827,0.617361 2.004402,0 2.32495,-0.0795 1.982815,-0.491744 z m 2.081276,-5.417284 c -0.0068,-0.416602 1.924371,-4.655336 2.120999,-4.655336 0.196627,0 2.127818,4.238734 2.120998,4.655336 -0.0024,0.145521 -0.956832,0.264584 -2.120998,0.264584 -1.164167,0 -2.118618,-0.119063 -2.120999,-0.264584 z m 16.232109,1.163412 c -0.107999,-2.906529 -0.04995,-4.620066 0.149729,-4.419476 0.179367,0.180184 1.390365,2.335911 2.691113,4.790503 l 2.36499,4.462896 2.776946,-4.894848 2.776944,-4.894848 0.0994,4.360118 c 0.0664,2.913338 -0.0357,4.522904 -0.30778,4.850694 -0.3409,0.410764 -0.0156,0.490577 1.99967,0.490577 1.87196,0 2.31273,-0.09408 1.98347,-0.423334 -0.59616,-0.596162 -0.59616,-13.021058 0,-13.617221 0.32926,-0.329258 -0.23518,-0.423333 -2.54,-0.423333 -2.26851,0 -2.86621,0.09712 -2.54913,0.4142 0.31708,0.317083 -0.0108,1.206284 -1.398392,3.79236 -0.996925,1.857989 -1.995208,3.649204 -2.218404,3.98048 -0.346219,0.513863 -0.705181,0.03274 -2.444372,-3.27618 -1.121205,-2.133173 -1.949418,-4.110778 -1.840477,-4.394679 0.164049,-0.427504 -0.300009,-0.515253 -2.701265,-0.51078 -1.645373,0.0032 -2.702211,0.130468 -2.44354,0.294573 0.353191,0.22407 0.432612,1.851028 0.352778,7.226917 l -0.103029,6.937752 1.763889,3.52e-4 1.763889,3.53e-4 -0.176389,-4.747087 z m 21.590002,4.322282 c -0.29808,-0.298076 -0.42334,-2.312655 -0.42334,-6.80861 0,-4.495955 0.12526,-6.510535 0.42334,-6.808611 0.32925,-0.329258 -0.11759,-0.423333 -2.01084,-0.423333 -1.89324,0 -2.34009,0.09408 -2.01083,0.423333 0.29808,0.298076 0.42333,2.312656 0.42333,6.808611 0,4.495955 -0.12525,6.510534 -0.42333,6.80861 -0.32926,0.329258 0.11759,0.423334 2.01083,0.423334 1.89325,0 2.34009,-0.09408 2.01084,-0.423334 z m 6.71076,-4.426768 -0.0979,-4.851287 4.28667,4.306048 c 2.93284,2.946096 4.22066,4.478059 4.07767,4.850694 -0.17554,0.457454 0.16761,0.544647 2.14354,0.544647 1.82975,0 2.25846,-0.09408 1.92921,-0.423334 -0.59617,-0.596162 -0.59617,-13.021058 0,-13.617221 0.32925,-0.329258 -0.0784,-0.423333 -1.83445,-0.423333 -1.75605,0 -2.1637,0.09408 -1.83444,0.423333 0.28634,0.286343 0.41758,1.856013 0.40556,4.850694 l -0.0178,4.427361 -4.18889,-4.362178 c -2.5403,-2.645385 -4.11511,-4.554442 -4.00143,-4.850694 0.14759,-0.384599 -0.28959,-0.488516 -2.05514,-0.488516 h -2.2426 v 7.231944 7.231944 l 1.76389,7.05e-4 1.76389,7.06e-4 -0.0978,-4.851291 z m -59.697432,-16.581147 7.06e-4,-1.675694 -5.115825,0.10632 -5.115827,0.10632 v -1.958403 -1.958404 h 3.174999 c 1.881481,0 3.175,0.143726 3.175,0.352778 0,0.194028 0.15875,0.352778 0.352778,0.352778 0.194028,0 0.352933,-0.754063 0.353123,-1.675694 l 3.43e-4,-1.675695 -3.52812,0.121253 -3.528123,0.12125 v -1.646583 -1.646583 l 5.115775,0.114222 5.115774,0.114219 -3.52e-4,-1.478484 c -5.79e-4,-0.813167 -0.159551,-1.576599 -0.353579,-1.696516 -0.194028,-0.119916 -0.352778,-0.04991 -0.352778,0.155568 0,0.249975 -2.24132,0.373599 -6.773333,0.373599 -5.268146,0 -6.679257,0.09407 -6.349999,0.423333 0.596162,0.596163 0.596162,13.021059 0,13.617222 -0.329258,0.329258 1.077224,0.423333 6.329178,0.423333 4.12114,0 6.837479,0.137474 6.970543,0.352778 0.407508,0.659362 0.529167,0.35554 0.529717,-1.322917 z m 14.222108,0.459031 c 0.740446,-0.264079 1.67568,-0.773045 2.078295,-1.131044 2.529177,-2.248895 2.722675,-8.163055 0.354341,-10.830175 -1.421596,-1.600944 -3.097982,-1.975598 -8.876545,-1.983814 -4.239214,-0.006 -5.356341,0.08633 -5.027083,0.415586 0.596163,0.596163 0.596163,13.021059 0,13.617222 -0.635003,0.635003 9.66538,0.556186 11.470992,-0.08778 z m -7.872659,-6.720836 v -4.7625 h 2.839741 c 3.381908,0 4.756916,0.578573 5.478328,2.305156 1.040995,2.491447 0.241685,5.840892 -1.615291,6.768764 -0.488044,0.243858 -2.181821,0.443001 -3.792361,0.44588 l -2.910417,0.0052 z m 22.313193,6.998306 c -0.242534,-0.09786 -0.43307,-0.442521 -0.423414,-0.765898 0.02918,-0.977099 3.389051,-9.00692 3.615443,-8.64061 0.115714,0.187226 0.935168,2.215691 1.821007,4.507695 1.240109,3.208634 1.518486,4.278298 1.210109,4.649869 -0.332091,0.400145 0.006,0.482582 1.978938,0.482582 1.986781,0 2.312557,-0.0806 1.974116,-0.488396 -0.315549,-0.38021 0.07199,-1.728167 1.749551,-6.085416 1.18519,-3.07836 2.45405,-6.112958 2.81969,-6.743548 l 0.66479,-1.146528 h -2.46053 c -2.294506,0 -2.433381,0.04349 -2.058057,0.644479 0.324383,0.519416 0.148749,1.321827 -0.905062,4.134922 -0.719151,1.919746 -1.426658,3.703278 -1.572235,3.963412 -0.166455,0.297438 -0.830143,-1.037473 -1.788305,-3.596925 -1.25894,-3.3629 -1.446053,-4.163356 -1.077118,-4.607891 0.393604,-0.474268 0.122844,-0.537997 -2.285728,-0.537997 -2.236714,0 -2.661433,0.0853 -2.341894,0.47032 0.295148,0.355628 -0.0038,1.452499 -1.225776,4.497916 -0.888859,2.21518 -1.65904,4.072713 -1.711519,4.12786 -0.2748,0.288773 -3.002439,-7.862044 -2.821633,-8.431706 0.192169,-0.605473 0.0014,-0.66439 -2.149157,-0.66439 -1.896837,0 -2.285298,0.09004 -1.979281,0.458766 0.787767,0.949202 5.043462,12.4301 4.895144,13.205985 -0.146674,0.767281 -0.05979,0.798026 2.179563,0.771285 1.282781,-0.01531 2.133893,-0.107922 1.891358,-0.205786 z m 20.10833,0 c -0.58859,-0.2375 -0.55612,-0.989838 0.0973,-2.253325 l 0.53822,-1.040815 h 3.36033 3.36033 l 0.52878,1.265548 c 0.40808,0.976673 0.43438,1.379298 0.11519,1.763889 -0.35023,0.422003 0.007,0.498341 2.33012,0.498341 2.58597,0 2.7123,-0.03549 2.19743,-0.617361 -0.30044,-0.339549 -1.92041,-3.369744 -3.59993,-6.733765 -2.43045,-4.86815 -2.96928,-6.218079 -2.64021,-6.614583 0.34957,-0.421196 0.0215,-0.498179 -2.12296,-0.498179 -2.35079,0 -2.52049,0.05015 -2.31893,0.685228 0.21754,0.685402 -4.85543,11.841607 -5.98473,13.161299 -0.49638,0.580058 -0.37397,0.615678 2.02589,0.589509 1.4048,-0.01531 2.35575,-0.107922 2.11321,-0.205786 z m 1.6757,-5.547589 c 0,-0.07523 0.4996,-1.204397 1.11022,-2.509262 1.22871,-2.625714 1.12262,-2.654984 2.616,0.721812 l 0.85099,1.924233 h -2.28861 c -1.25873,0 -2.2886,-0.06155 -2.2886,-0.136783 z m 17.02152,5.547589 c -0.30066,-0.12132 -0.44097,-1.066584 -0.44097,-2.970759 v -2.792825 h 1.88852 1.88852 l 1.66422,2.502754 c 0.91532,1.376514 1.57859,2.725889 1.47394,2.998611 -0.15329,0.399471 0.33714,0.495857 2.52298,0.495857 2.51637,0 2.65825,-0.03853 1.95525,-0.530931 -0.62622,-0.438619 -3.9851,-4.875438 -3.9851,-5.264005 0,-0.06418 0.46057,-0.307463 1.02349,-0.540632 1.77736,-0.736204 2.62188,-1.937409 2.62188,-3.729234 0,-1.761822 -0.83447,-3.216056 -2.26826,-3.952914 -1.19146,-0.612316 -12.99502,-0.634083 -12.38377,-0.02282 0.29807,0.298076 0.42333,2.312656 0.42333,6.808611 0,4.495955 -0.12526,6.510535 -0.42333,6.808611 -0.32926,0.329258 0.12151,0.417145 2.02847,0.395481 1.34849,-0.01531 2.25337,-0.107922 2.01083,-0.205786 z m -0.44097,-9.996917 v -1.763889 h 3.51965 c 3.30894,0 3.55229,0.04982 4.06494,0.832238 0.5506,0.84031 0.40443,1.924773 -0.32691,2.425555 -0.20818,0.142551 -1.92633,0.261613 -3.8181,0.264584 l -3.43958,0.0054 z m 25.663,9.687933 c 2.69648,-1.126659 3.97033,-3.215417 3.97033,-6.51021 0,-3.468976 -1.15797,-5.578358 -3.70416,-6.747576 -1.17292,-0.538604 -2.33116,-0.649291 -6.86153,-0.655733 -4.23922,-0.006 -5.35634,0.08633 -5.02708,0.415586 0.29807,0.298076 0.42333,2.312656 0.42333,6.808611 0,4.495955 -0.12526,6.510535 -0.42333,6.808611 -0.69254,0.692534 9.94067,0.583402 11.62244,-0.119289 z m -8.02411,-6.689322 v -4.7625 l 2.91042,0.0052 c 1.61054,0.0028 3.30431,0.202022 3.79236,0.445879 1.86574,0.932254 2.73553,4.737192 1.58951,6.953359 -0.91238,1.764369 -1.78516,2.120576 -5.19579,2.120576 h -3.0965 z"
       id="path102079" class="primary" />
  </g>
</svg>
