<svg
   version="1.0"
   viewBox="0 0 1673.0954 2220.3885"
   preserveAspectRatio="xMidYMid"
   id="svg2253">
   <g
     id="layer101"
     transform="matrix(0.29278964,0,0,0.29278964,28.289719,47.378954)">
      <path
         id="background"
         class="background"
         d="m 2613.9277,-161.73047 c -83.4596,-3.93466 -198.6139,124.351446 -219.2793,144.808595 C 2097.3238,277.40679 595.76378,1783.3119 537.81836,1856.5527 233.525,2239.8914 33.280617,2680.081 -52.259766,3153.1934 l -0.03125,0.1718 -0.0293,0.1739 c -120.320628,674.4286 6.342811,1373.4658 356.902342,1961.6035 l 0.0254,0.041 0.0234,0.041 C 753.76188,5867.651 1497.4009,6357.334 2382.5547,6487.9785 c 39.0534,5.9076 96.439,9.6895 127.4433,9.6895 h 2.9981 l 2.998,-0.1211 c 100.3428,-3.996 196.3844,1.8718 295.6524,-0.4004 -0.4259,409.2638 -0.4977,781.6948 12.293,815.7832 l 0.8378,2.2324 0.9082,2.2031 c 86.0777,209.0437 255.6571,43.3688 280.4766,20.3848 227.1561,-210.3573 1315.3308,-1297.8362 1640.8223,-1638.9004 22.5365,-22.1698 44.7212,-44.6985 66.5097,-67.6113 l 0.4141,-0.4356 0.4102,-0.4394 c 10.7549,-11.4923 78.5531,-74.8288 113.3222,-115.6016 l 0.096,-0.1133 0.096,-0.1132 c 113.447,-133.5689 206.9792,-273.9687 290.3086,-414.9082 l 0.709,-1.2012 0.6875,-1.2129 c 7.7752,-13.7245 15.4129,-27.5211 22.9551,-41.3633 l 0.072,-0.1289 c 117.3293,-206.7449 208.2698,-425.8485 270.6816,-658.6621 l 0.5156,-1.9238 0.4649,-1.9375 c 0.7419,-3.0925 1.4711,-6.1757 2.1992,-9.2559 21.0337,-79.6728 45.4892,-166.5587 61.0859,-258.5605 57.3302,-334.4812 52.8301,-658.356 -10.3047,-1003.4922 l -0.5351,-2.9258 -0.6504,-2.9024 c -42.242,-188.5399 -96.1057,-380.049 -173.2207,-562.6699 l -0.459,-1.084 -0.4746,-1.0761 c -109.3462,-248.0689 -157.75,-314.8106 -157.75,-314.8106 l 1.2324,2.1973 c -19.8238,-36.0106 -40.4174,-71.5843 -61.7695,-106.6973 l -0.5274,-0.8672 -0.5371,-0.8574 c -3.8486,-6.1412 -13.4269,-25.603 -26.0117,-44.5508 l -0.07,-0.1093 -0.072,-0.1075 c -26.0088,-39.0132 -47.6178,-65.0747 -67.1601,-92.6347 l 0.6172,0.875 c -20.2149,-28.9422 -40.9643,-57.5054 -62.2364,-85.6739 l -0.3261,-0.4316 -0.3282,-0.4277 c -31.4633,-41.0483 -70.4095,-88.0051 -103.6621,-125.834 -33.3114,-38.3202 -67.6328,-75.7399 -102.9355,-112.2129 l -0.2461,-0.2539 -0.2461,-0.252 c -7.9981,-8.1862 -16.2896,-19.1039 -32.3027,-35.1172 l -0.1797,-0.1796 -0.1817,-0.1797 c -13.7507,-13.6583 -22.4988,-20.2925 -28.9199,-26.5586 l -0.014,-0.014 -0.014,-0.014 c -42.3284,-41.2849 -85.929,-81.2287 -130.7325,-119.7773 -28.0179,-24.3787 -62.7183,-53.9684 -93.4765,-78.1621 l -0.3086,-0.2422 -0.3106,-0.2402 c -45.9962,-35.7928 -93.0747,-70.1538 -141.1718,-103.0313 l 0.4004,0.2754 c -12.963,-8.9224 -26.6279,-20.7968 -49.2208,-35.8145 l -0.053,-0.035 -0.053,-0.033 c -20.109,-13.3424 -16.959,-9.8184 -16.959,-9.8184 l 0.1875,0.1231 c -93.492,-61.425 -190.5095,-117.2331 -290.5469,-167.1328 l -0.2246,-0.1133 -0.2246,-0.1094 c -27.4729,-13.5901 -56.9511,-25.2603 -78.0312,-34.8516 -80.7592,-36.8824 -163.1947,-69.92873 -247.0352,-99.02535 l 0.3828,0.13477 c -9.8887,-3.46173 -24.7127,-11.42115 -49.0781,-19.55469 -21.1215,-7.06944 -38.3208,-10.0479 -42.7481,-11.43164 l -0.5039,-0.15625 -0.5039,-0.1543 C 3538.9023,906.29718 3469.0118,887.89323 3398.5,872.19922 l 1.1426,0.25976 c -28.7568,-6.63549 -57.5257,-14.80131 -91.8164,-21.66992 l -2.6133,-0.52344 -2.627,-0.42968 c -21.716,-3.55657 -43.4826,-6.81269 -65.2793,-9.85938 -71.3114,-12.54283 -154.1314,-27.88269 -216.7714,-32.27148 l -0.252,-0.0176 -44.1328,-2.94336 c -89.2635,-8.99079 -181.3528,-5.82148 -267.8438,2.61133 1.094,-192.62949 3.2396,-15.4131 -5.6484,-769.132814 L 2702.668,40 c 0,-149.40944 -38.6645,-199.36967 -88.7403,-201.73047 z m 1037.8438,1100.8418 c 0.039,0.0131 0.072,0.0201 0.1113,0.0332 l -0.2383,-0.0801 c 0.047,0.0156 0.08,0.0313 0.127,0.0469 z m 965.7226,547.63087 c 0.1168,0.1016 0.2644,0.2247 0.3809,0.3262 l -0.6602,-0.5704 c 0.094,0.081 0.1856,0.1635 0.2793,0.2442 z m 295.7715,294.5586 c 0.1066,0.1225 0.2158,0.2427 0.3223,0.3652 l -0.5801,-0.664 c 0.083,0.095 0.1746,0.2041 0.2578,0.2988 z m 664.2461,2344.0801 c -0,0.026 -0.01,0.052 -0.012,0.078 l 0.053,-0.2988 c -0.012,0.074 -0.028,0.1465 -0.041,0.2207 z m -3194.957,2362.5976 c -0.038,-0.01 -0.087,-0.01 -0.125,-0.016 l 0.5937,0.088 c -0.1566,-0.023 -0.3121,-0.049 -0.4687,-0.072 z M 537.81836,1856.5527 c 0.0618,-0.078 0.12181,-0.1565 0.18359,-0.2343 l -0.2207,0.2773 c 0.007,-0.01 0.03,-0.034 0.0371,-0.043 z"
      />
      <path
         d="M 2405,6339 C 1564,6215 859,5750 434,5038 102,4481 -18,3819 96,3180 177,2732 367,2314 656,1950 720,1869 2536,40 2552,40 c 5,0 7,489 6,1086 l -3,1087 -100,22 c -187,43 -349,110 -492,205 -195,130 -371,321 -472,510 l -42,80 h 450 451 v 625 625 h -450 -450 l 24,48 c 49,96 150,236 239,328 201,211 421,337 712,409 l 130,32 v 624 624 l -45,2 c -25,0 -72,-3 -105,-8 z"
         id="left"
         class="primary" />
      <path
         d="m 3713,2560 c -179,-159 -396,-268 -648,-325 l -100,-22 V 1584 955 l 45,3 c 157,11 415,64 594,124 246,82 435,173 646,313 170,113 272,197 421,345 147,147 228,246 350,429 89,134 243,426 233,443 -3,4 -335,8 -739,8 h -734 z"
         id="right-top"
         class="primary" />
      <path
         d="m 2965,7260 c -3,-8 -4,-498 -3,-1089 l 3,-1074 130,-32 c 145,-36 256,-78 360,-135 229,-126 434,-328 564,-555 l 51,-90 -450,-3 -450,-2 v -625 -625 h 1113 1113 l 23,119 c 60,328 64,636 10,951 -84,496 -289,932 -616,1317 -139,163 -1841,1860 -1848,1843 z"
         id="right-bottom"
         class="primary" />
   </g>
</svg>
