<svg
   viewBox="0 0 145.25626 47.889584"
   version="1.1"
   id="svg8">

   <g
      id="layer1"
      transform="translate(-8.472478,-134.20574)">
      <g
         id="g837"
         transform="matrix(0.20235523,0,0,0.20136903,8.4722756,85.876162)">
         <path
            id="letter-f-top"
            class="primary"
            d="m 78.231,331.823 c 23.107,-14.537 49.691,-21.988 76.975,-21.988 h 64.861 c -13.845,-5.388 -28.118,-12.715 -40.723,-21.499 21.328,12.736 52.662,20.825 78.325,21.499 h 14.142 l 40.281,-69.771 H 0.001 l 64.673,75.857 z"
         />
         <path
            id="letter-f-bottom"
            class="primary"
            d="m 249.432,348.596 h -94.226 c -19.139,0 -37.174,4.888 -53.032,14.044 -8.546,4.935 -16.361,11.118 -23.272,18.449 17.428,-10.152 39.135,-16.511 68.635,-15.971 -52.438,6.775 -78.691,28.884 -104.95,72.977 l -22.977,39.73 h 80.417 l 23.915,-41.56 c 3.333,-5.777 7.833,-10.299 13.137,-13.362 5.079,-2.933 11.236,-4.497 18.127,-4.497 h 53.924 z"
         />
         <path
            id="letter-p"
            class="primary"
            d="m 473.786,393.334 c 16.264,-16.264 26.358,-38.729 26.358,-63.466 0,-55.731 -52.628,-73.436 -98.318,-78.147 27.975,-1.832 53.838,4.884 71.603,14.253 -16.056,-16.723 -41.29,-25.93 -63.109,-25.93 h -76.444 l -40.595,70.313 h 18.335 47.457 51.247 c 5.329,0 10.2,2.205 13.754,5.758 3.552,3.553 5.758,8.424 5.758,13.753 0,5.33 -2.206,10.201 -5.758,13.753 -3.554,3.553 -8.425,5.759 -13.754,5.759 H 270.75 l -0.011,0.019 -24.203,41.92 -16.381,28.373 -33.562,58.132 h 81.146 l 33.562,-58.132 h 99.019 c 24.738,0 47.203,-10.095 63.466,-26.358"
         />
         <path
            id="letter-x"
            class="primary"
            d="M 717.829,240.005 H 637.265 L 591.39,294.027 559.989,240.005 H 452.016 c 50.586,17.978 62.002,57.849 89.193,74.537 10.883,6.678 20.871,6.774 32.044,6.774 -28.08,-5.093 -36.265,-23.078 -36.265,-23.078 0,0 6.037,7.605 23.591,12.547 22.9,6.448 39.197,2.123 50.608,32.229 -9.035,-5.662 -19.95,-7.931 -29.095,-7.191 -35.093,2.838 -63.653,43.213 -104.475,75.97 -16.063,12.887 -33.045,20.448 -57.642,24.388 9.964,0.834 41.538,-1.141 62.667,-13.84 -29.022,32.349 -84.637,47.823 -130.992,55.446 l -0.255,0.038 h 164.479 l 60.663,-71.438 41.244,71.438 h 80.44 L 624.126,350.348 Z"
         />
      </g>
   </g>
</svg>