<svg
  viewBox="0 0 73.742996 135.1554"
  version="1.1"
  id="svg2497"
  xml:space="preserve"
>
  <g id="layer1" transform="translate(-69.73516,-58.615263)">
    <path
      id="letters"
      d="M 74.989103 91.624618 L 74.989103 97.974618 L 74.989103 104.32462 L 106.60681 104.32462 L 138.22452 104.32462 L 138.22452 97.974618 L 138.22452 91.624618 L 106.60681 91.624618 L 74.989103 91.624618 z M 74.989103 110.41003 L 74.99272 130.05535 C 74.99712 152.04716 74.945834 151.36344 76.891312 155.3892 C 77.891568 157.45903 78.364634 158.02804 82.827901 162.53295 L 87.677217 167.42774 L 87.682902 154.79389 L 87.689103 142.16003 L 94.039103 142.16003 L 100.3891 142.16003 L 100.3891 135.81003 L 100.3891 129.46003 L 94.039103 129.46003 L 87.689103 129.46003 L 87.689103 126.41733 L 87.689103 123.37462 L 97.081811 123.37462 L 106.47452 123.37462 L 106.47659 154.92618 L 106.47814 186.47774 L 120.86589 172.05795 C 135.20184 157.68998 135.25767 157.63008 136.3311 155.3892 L 136.33161 155.3892 C 138.26727 151.34835 138.21602 152.03154 138.22039 130.05535 L 138.22452 110.41003 L 131.89002 110.41003 L 125.55553 110.41003 L 125.45992 127.6741 C 125.36542 144.72144 125.35638 144.96338 124.76384 146.92098 C 123.97665 149.52165 122.89792 151.50393 121.06588 153.71643 L 119.57139 155.52149 L 119.5037 132.96576 L 119.436 110.41003 L 97.212553 110.41003 L 74.989103 110.41003 z "
      class="primary"
     />
    <path
      d="m 90.46241,177.55659 c -14.279362,-14.3422 -16.286384,-16.45844 -17.384669,-18.33074 -1.588678,-2.7083 -2.757293,-6.23305 -3.118377,-9.40557 -0.191796,-1.68514 -0.259371,-12.59639 -0.207205,-33.45693 l 0.07741,-30.956248 13.890624,-0.06861 13.890625,-0.06861 0.863637,-3.238684 c 0.475001,-1.781277 0.855059,-3.357748 0.844576,-3.503269 -0.01048,-0.145521 -2.093558,-1.923741 -4.62905,-3.951601 -2.535493,-2.02786 -4.543067,-3.754266 -4.461274,-3.836458 0.08179,-0.08219 2.750174,-0.270105 5.929736,-0.417583 3.179562,-0.147479 5.854607,-0.341725 5.944537,-0.431659 0.0899,-0.08993 1.11841,-2.646379 2.28551,-5.680989 1.16709,-3.03461 2.15635,-5.551834 2.19834,-5.59383 0.042,-0.042 0.99534,2.344936 2.11854,5.304296 1.1232,2.959359 2.14506,5.547133 2.27082,5.750608 0.22363,0.361837 3.75322,0.64608 9.98411,0.804034 1.20055,0.03043 2.18281,0.134539 2.18281,0.231345 0,0.09681 -2.07916,1.836789 -4.62035,3.866631 -2.54119,2.029843 -4.62647,3.809685 -4.63395,3.955206 -0.007,0.145521 0.37504,1.721992 0.85004,3.503269 l 0.86364,3.238684 13.89062,0.06861 13.89063,0.06861 0.0774,30.956248 c 0.0522,20.86054 -0.0154,31.77179 -0.2072,33.45693 -0.36105,3.17217 -1.52959,6.69696 -3.11814,9.40557 -1.09833,1.87274 -3.10189,3.98519 -17.38588,18.33074 l -16.14448,16.21407 z m 45.86895,-22.1672 c 1.93566,-4.04086 1.88472,-3.35763 1.88909,-25.33385 l 0.004,-19.64531 H 131.89 125.55564 l -0.0958,17.26406 c -0.0945,17.04736 -0.10329,17.28894 -0.69583,19.24655 -0.78719,2.60067 -1.86605,4.58321 -3.69809,6.79572 l -1.49472,1.80512 -0.0676,-22.55573 -0.0676,-22.55572 H 97.21246 74.988948 l 0.0039,19.64531 c 0.0044,21.99184 -0.04687,21.30808 1.89861,25.33385 1.000257,2.06983 1.473087,2.63883 5.936358,7.14375 l 4.849535,4.89479 0.0058,-12.63385 0.0058,-12.63386 h 6.35 6.349999 v -6.35 -6.34999 h -6.349999 -6.35 v -3.04271 -3.04271 h 9.392708 9.392701 l 0.002,31.55156 0.002,31.55156 14.38765,-14.41979 c 14.33597,-14.36799 14.39152,-14.42787 15.46495,-16.66875 z m 1.893,-57.41458 v -6.35 h -31.6177 -31.617712 v 6.35 6.35 h 31.617712 31.6177 z M 106.85464,80.337037 c 0.22177,0.0851 1.47709,0.8768 2.7896,1.759328 1.3125,0.882527 2.38637,1.480505 2.38637,1.328841 0,-0.151665 -0.36751,-1.599842 -0.8167,-3.218171 -0.46337,-1.669443 -0.71162,-3.012542 -0.57381,-3.104508 0.13359,-0.08915 1.28995,-0.995528 2.56969,-2.014174 1.63098,-1.298219 2.17841,-1.867877 1.83059,-1.904898 -0.27293,-0.02905 -1.76191,-0.128831 -3.30885,-0.221741 l -2.81262,-0.168927 -1.13035,-3.019405 c -0.6217,-1.660672 -1.15869,-3.019404 -1.19333,-3.019404 -0.0346,0 -0.56635,1.358355 -1.18159,3.018565 l -1.11861,3.018565 -3.07752,0.175272 c -1.692637,0.0964 -3.170123,0.197662 -3.283301,0.225028 -0.113178,0.02737 0.933897,0.98004 2.326831,2.117053 1.80344,1.472091 2.49489,2.195074 2.40159,2.511095 -0.58244,1.972737 -1.47993,5.362941 -1.47993,5.590305 0,0.154207 1.18546,-0.508909 2.63436,-1.47359 1.57986,-1.051884 2.79575,-1.692029 3.03758,-1.599234 z"
      id="outline"
      class="background"
    />
    <path
      id="star"
      d="m 106.59544,66.753784 c -0.0346,0 -0.5666,1.358729 -1.18184,3.018937 l -1.11879,3.018421 -3.07733,0.175183 c -1.692639,0.0964 -3.170347,0.197943 -3.283524,0.225309 -0.113178,0.02737 0.934057,0.979655 2.326994,2.116667 1.80343,1.472089 2.49522,2.195454 2.40192,2.511475 -0.58244,1.972735 -1.48002,5.362475 -1.48002,5.589839 0,0.154207 1.18557,-0.508615 2.63447,-1.473295 1.57986,-1.051883 2.79571,-1.69218 3.03754,-1.599385 0.22177,0.0851 1.47698,0.877055 2.78949,1.759582 1.3125,0.882526 2.38642,1.480265 2.38642,1.328601 0,-0.151665 -0.36782,-1.599564 -0.817,-3.217891 -0.46337,-1.669442 -0.71142,-3.012754 -0.57361,-3.10472 0.13359,-0.08915 1.29013,-0.995703 2.56987,-2.014348 1.63097,-1.298217 2.17819,-1.867772 1.83037,-1.904793 -0.27292,-0.02905 -1.7619,-0.128782 -3.30884,-0.221692 l -2.81275,-0.168982 -1.13016,-3.019454 c -0.6217,-1.66067 -1.15857,-3.019454 -1.19321,-3.019454 z"
      class="secondary"
    />
  </g></svg>
