<svg
   viewBox="0 0 190.29279 214.07674"
   version="1.1"
   id="svg14648"
   xml:space="preserve"
>
   <g id="layer1" transform="translate(1.643375,-40.794849)">
      <path
         d="M 57.502159,218.93817 21.766763,183.00475 10.201199,112.49511 C 3.8401381,73.714812 -1.427143,41.717583 -1.5038705,41.390161 L -1.643375,40.794849 h 95.146391 c 78.004654,0 95.146394,0.06211 95.146394,0.344751 0,0.189613 -2.14313,12.479811 -4.7625,27.311551 -2.61938,14.83174 -4.7625,26.99957 -4.7625,27.039622 0,0.04005 -33.58889,0.07282 -74.64196,0.07282 H 29.840488 l 31.779458,31.904417 31.779462,31.90442 v 27.16226 27.16226 l 8.466662,-8.46356 8.46667,-8.46357 V 174.80849 152.84717 L 90.026616,132.53976 69.720488,112.23235 h 53.539642 c 42.71799,0 53.51589,0.0669 53.42215,0.33073 -0.0646,0.1819 -2.72594,16.13588 -5.91405,35.45329 l -5.79655,35.12256 -35.86706,35.86633 -35.867063,35.86633 z"
         id="path15507"
         class="primary"
      />
   </g>
</svg>
