<svg
   id="Layer_1"
   viewBox="0 0 1021.18 1079.78"
   version="1.1">
  <polygon
     class="primary"
     id="letter-k"
     points="176.23 300.62 136.86 325.44 136.86 67.93 0 67.93 0 765.9 136.86 852.72 136.86 488.42 176.23 463.6 176.23 878.72 313.11 965.54 313.11 418.89 247.14 418.89 311.46 378.33 313.11 378.33 313.11 377.29 313.11 214.31 313.11 67.94 176.23 67.94 176.23 300.62" />
  <path
     class="primary"
     id="letter-r"
     d="m354.04,67.93v925.03l136.86,86.82V488.43l39.37-24.83v616.18l136.88-86.82V418.75h-65.74l64.1-40.43,1.65-1.04V67.94h-313.11Zm136.86,257.51v-120.75h39.37v95.92l-39.37,24.83Z" />
  <polygon
     class="primary"
     id="letter-u"
     points="884.31 689.35 844.94 715.74 844.94 169.86 708.08 169.86 708.08 966.25 1021.18 765.58 1021.18 169.86 884.31 169.86 884.31 689.35" />
  <path
     id="left-square"
     class="primary"
     transform="translate(188.47 579.39) rotate(-46.05)"
     d="m 727.90002,19.889999 h 96.1 V 115.99 h -96.1 z" />
  <path
     id="right-square"
     class="primary"
     transform="translate(242.71 707.02) rotate(-46.05)"
     d="m 905.19,19.889999 h 96.1 V 115.99 h -96.1 z" />
</svg>
