<svg
   class="header__logo logo"
   viewBox="0 0 694.03973 489.142"
   aria-labelledby="SVGLiquipediaLogo"
   role="img"
   fill="none"
   version="1.1"
   id="svg11">
  <title
     id="SVGLiquipediaLogo">Liquipedia logo</title>
  <g
     id="layer1"
     transform="translate(-3.4584485e-4)">
    <path
       style="display:inline;fill:#b3b3b3"
       d="m 515.469,0 h -1.084 c -6.099,0.678 -129.435,12.198 -148.139,18.162 -8.267,2.575 -21.414,9.758 -15.722,29.275 1.898,6.506 10.03,20.601 17.349,33.206 1.084,1.897 2.033,3.524 2.575,4.472 14.502,25.481 9.894,43.642 4.201,56.654 -11.385,26.158 -36.187,35.509 -55.704,35.509 -11.521,0 -22.905,-3.117 -31.851,-8.674 -27.92,-17.484 -37.814,-41.744 -30.359,-74.137 3.795,-17.484 5.286,-30.088 4.472,-38.627 -0.677,-6.506 -3.795,-11.52 -8.945,-14.638 -3.93,-2.304 -8.945,-3.524 -15.18,-3.524 -12.333,0 -25.48,4.744 -26.971,5.286 L 113.882,74.95 c -3.388,1.084 -5.964,3.253 -7.454,6.1 -0.949,2.032 -1.898,5.285 -0.407,9.622 l 25.616,76.848 c 5.828,17.348 4.201,24.803 1.897,28.055 -1.897,2.711 -5.828,4.067 -11.384,4.067 -1.356,0 -2.711,-0.136 -4.338,-0.272 l -15.857,-1.626 -30.766,-3.117 c -1.898,-0.136 -3.795,-0.271 -5.693,-0.271 -16.941,0 -33.748,7.861 -46.217,21.55 -13.824,15.45 -20.872,36.865 -18.974,58.686 2.846,30.766 19.11,48.25 32.121,57.466 15.45,10.978 32.935,15.044 43.1,15.18 h 1.22 c 14.637,0 29.953,-4.337 48.25,-13.689 18.703,-9.623 26.293,-11.114 29.14,-11.114 h 0.542 c 10.436,1.085 10.165,23.177 10.165,23.312 v 0.271 l 1.626,131.062 v 0.542 c 1.084,8.538 7.048,11.52 11.927,11.52 h 1.084 c 6.099,-0.542 129.435,-12.198 148.003,-18.026 8.268,-2.575 21.415,-9.758 15.722,-29.275 -1.897,-6.506 -10.029,-20.601 -17.348,-33.206 -1.084,-1.898 -2.033,-3.524 -2.575,-4.473 -14.502,-25.48 -9.894,-43.642 -4.202,-56.653 11.385,-26.158 36.188,-35.51 55.705,-35.51 11.52,0 22.905,3.117 31.85,8.674 27.92,17.484 37.814,41.745 30.36,74.137 -3.795,17.484 -5.286,30.089 -4.473,38.628 0.678,6.505 3.795,11.52 8.946,14.637 3.93,2.304 8.945,3.524 15.179,3.524 12.334,0 25.481,-4.744 26.972,-5.286 l 96.229,-31.986 c 3.388,-1.084 5.963,-3.253 7.454,-6.099 0.949,-2.033 1.898,-5.286 0.407,-9.623 l -25.616,-76.847 c -5.828,-17.349 -4.202,-24.803 -1.898,-28.056 1.898,-2.711 5.828,-4.066 11.385,-4.066 1.355,0 2.711,0.136 4.337,0.271 l 15.858,1.627 30.766,3.117 c 1.897,0.135 3.795,0.271 5.692,0.271 16.942,0 33.748,-7.861 46.217,-21.55 14.231,-15.586 21.279,-37.136 19.246,-58.957 -2.846,-30.766 -19.11,-48.25 -32.121,-57.467 -15.451,-10.978 -32.935,-15.044 -43.1,-15.179 h -1.22 c -14.638,0 -29.953,4.337 -48.25,13.688 -18.704,9.623 -26.294,11.114 -29.14,11.114 h -0.542 c -10.436,-1.084 -10.165,-23.176 -10.165,-23.312 v -0.271 L 527.396,12.198 V 11.656 C 526.312,2.982 520.348,0 515.469,0 Z"
       id="path825" />
    <path
       d="m 442.688,396.301 c -0.542,2.847 -1.22,5.557 -1.762,8.403 11.791,0.136 29.817,-4.201 29.817,-4.201 l -26.022,-33.07 c 1.084,9.487 0.135,19.245 -2.033,28.868 z"
       fill="currentColor"
       class="logo--color-icon"
       style="fill:#ffffff"
       id="path5" />
    <path
       d="m 337.92,443.739 c -2.304,-7.726 -16.129,-30.496 -19.517,-36.459 -15.586,-27.514 -10.436,-47.979 -4.473,-61.804 2.169,-5.014 4.744,-9.351 7.726,-13.417 -10.978,-35.51 -6.235,-74.002 -6.235,-74.002 1.898,27.784 14.502,48.521 22.363,59.093 22.092,-14.096 51.503,-13.689 71.833,-0.949 21.686,13.689 31.851,30.495 34.561,48.386 l 51.91,22.227 30.631,-45.404 -84.574,-127.673 c -6.234,-15.993 -3.794,-35.781 -3.794,-35.781 -3.253,-1.084 -33.206,-17.212 -59.635,-31.579 -18.298,38.221 -65.734,45.133 -94.739,26.971 -21.278,-13.282 -31.308,-29.682 -34.425,-47.166 -9.759,5.557 -20.195,12.741 -31.038,21.415 -16.399,-20.601 -37.407,-50.012 -55.84,-83.083 l -46.759,15.587 c -3.659,1.22 -5.692,4.201 -4.201,8.539 0,0 1.22,3.794 3.253,9.758 26.158,30.766 54.891,57.195 76.441,74.95 -7.997,8.539 -15.858,18.026 -23.177,28.462 a 759.954,759.954 0 0 1 -26.564,-14.637 c 0,11.52 -5.828,19.652 -24.125,17.89 -13.012,-1.355 -42.016,-4.337 -46.624,-4.743 -4.066,-0.407 -7.997,-0.272 -11.927,0.271 33.07,14.908 65.734,25.887 90.13,32.663 -5.557,10.707 -10.572,22.092 -14.773,34.155 -32.393,-2.033 -79.965,-7.726 -125.505,-20.872 a 72.287,72.287 0 0 0 -2.71,27.784 c 1.355,15.451 6.37,27.513 13.146,37.001 39.576,0.949 77.797,-2.711 104.904,-6.777 -1.627,8.132 -2.846,16.535 -3.795,25.209 0.678,-0.406 1.355,-0.677 2.168,-1.084 13.012,-6.641 26.023,-12.198 32.8,-11.656 16.264,1.627 15.315,29.276 15.315,29.276 l 1.626,131.061 c 0.949,7.319 6.777,6.506 6.777,6.506 0,0 128.757,-12.063 146.919,-17.891 16.264,-5.015 13.418,-17.077 11.927,-22.227 z m 149.494,-102.329 17.619,4.744 -22.769,4.202 -10.301,-18.84 z m -82.54,-136.482 12.469,11.927 c 0,0 -14.773,6.099 -21.144,2.033 -6.37,-4.202 -16.67,-26.972 -16.67,-26.972 z"
       fill="currentColor"
       class="logo--color-icon"
       style="display:inline;fill:#ffffff"
       id="path7" />
    <path
       d="m 249.144,121.439 c -0.948,-9.352 0,-18.84 2.169,-28.327 2.982,-13.824 5.15,-27.649 4.337,-36.865 -1.897,-17.89 -25.887,-13.282 -37.407,-10.03 9.758,28.869 21.143,55.163 30.901,75.222 z"
       fill="currentColor"
       class="logo--color-icon"
       style="fill:#ffffff"
       id="path9" />
  </g>
</svg>
