<svg
   version="1.1"
   viewBox="0 0 82 23.200001"
   id="svg7"
   xmlns="http://www.w3.org/2000/svg"
   xmlns:svg="http://www.w3.org/2000/svg">
  
  <g
     stroke-width="1.3516"
     id="g5"
     transform="translate(1.4838014,1.5)">
    <path
       id="background"
       class="background"
       d="M -0.48380136,-1.5 H 79.516199 c 0.554,0 1,0.446 1,1 v 21.200001 c 0,0.554 -0.446,1 -1,1 H -0.48380136 c -0.55400004,0 -1.00000004,-0.446 -1.00000004,-1 V -0.5 c 0,-0.554 0.446,-1 1.00000004,-1 z" />
    <path
       id="letter-n"
       class="primary"
       d="m 5.5781,0.52638 c 0.25587,0 0.54371,0.095951 0.73561,0.25585 2.7185,2.3028 5.469,4.6375 8.1875,6.9402 l 6.9083,5.8847 v -12.697 c 0,-0.22387 0.15992,-0.38379 0.38379,-0.38379 h 4.8613 c 0.22388,0 0.38379,0.15992 0.38379,0.38379 v 18.518 c 0,0.22387 -0.15992,0.38379 -0.38379,0.38379 h -5.2771 c -0.25587,0 -0.57569,-0.09595 -0.76758,-0.28784 -2.6226,-2.2387 -5.2452,-4.4776 -7.8678,-6.7164 l -6.7484,-5.7248 v 12.313 c 0,0.22388 -0.15992,0.38379 -0.38379,0.38379 h -4.8294 c -0.22387,0 -0.38379,-0.15992 -0.38379,-0.38379 v -18.485 c 0,-0.1919 0.12793,-0.38379 0.35181,-0.38379 z" />
    <path
       id="letter-r"
       class="primary"
       d="m 34.107,19.396 c 0,0.22387 -0.1599,0.38379 -0.38379,0.38379 h -4.8934 c -0.22387,0 -0.38379,-0.15992 -0.38379,-0.38379 V 0.911 c 0,-0.22387 0.1599,-0.38379 0.38379,-0.38379 0.09595,0 9.4349,-0.031997 14.136,0 1.791,0 3.9018,0.12793 5.8847,0.89551 1.823,0.70361 2.9744,1.6631 3.646,3.0383 0.73561,1.5351 0.83155,3.3581 0.25587,4.8934 -0.57568,1.5032 -1.727,2.6546 -3.3581,3.3262 -0.57567,0.25585 -1.1834,0.41577 -1.7591,0.60767 -0.06397,0.03199 -0.12794,0.03199 -0.19191,0.06397 l 0.41578,0.41577 c 0.76757,0.73561 1.5671,1.4712 2.3667,2.2068 0.79956,0.73561 1.5671,1.4712 2.3986,2.2068 l 0.99147,0.83156 c 0.09595,0.09595 0.1599,0.25585 0.09595,0.38379 -0.06395,0.12793 -0.1599,0.25585 -0.28783,0.28784 -0.03199,0 -0.09595,0.032 -0.12794,0.032 -0.06397,0.03199 -0.15992,0.03199 -0.25587,0.03199 h -5.5331 c -0.28784,0 -0.54371,-0.15992 -0.70361,-0.31984 -1.919,-1.855 -3.8059,-3.6141 -5.693,-5.469 -0.12793,-0.12793 -0.22387,-0.15992 -0.3518,-0.15992 h -4.7974 c -0.22387,0 -0.38379,-0.15992 -0.38379,-0.38379 v -3.87 c 0,-0.095951 0.032,-0.1919 0.12794,-0.25585 0.06397,-0.063974 0.1599,-0.095951 0.25585,-0.095951 h 1.6311 c 2.0789,0 3.678,-0.031987 6.0127,-0.031987 0.73561,0 1.5671,-0.12793 2.5266,-0.31982 0.89551,-0.1919 1.3113,-0.70363 1.3433,-1.6311 0,-0.9275 -0.3518,-1.4073 -1.2793,-1.6951 -1.0554,-0.31982 -2.1748,-0.35181 -3.3262,-0.35181 h -8.7632 z" />
    <path
       id="letter-g"
       class="primary"
       d="m 64.554,5.1639 c -1.1514,0 -2.2708,0.031997 -3.3262,0.35181 -0.89551,0.28784 -1.2793,0.73559 -1.2793,1.6311 v 6.0127 c 0,0.86353 0.38378,1.3433 1.2793,1.6311 1.0554,0.31984 2.1748,0.35181 3.3262,0.35181 h 8.7632 v -2.2387 h -4.7654 c -0.22388,0 -0.38379,-0.15992 -0.38379,-0.38379 v -3.1663 c 0,-0.22387 0.1599,-0.38379 0.38379,-0.38379 0,0 10.043,-0.063974 10.043,0 0.22387,0 0.38379,0.15992 0.38379,0.38379 v 9.9786 c 0,0.22388 -0.1599,0.38379 -0.38379,0.38379 h -14.136 c -1.7591,0 -3.87,0.06397 -5.9168,-0.73561 -1.823,-0.70362 -2.9424,-1.7591 -3.6141,-3.1343 -0.38379,-0.79956 -0.60767,-1.6951 -0.63964,-2.6226 v -6.2686 c 0,-0.031987 0,-0.063954 0.03199,-0.095951 0.06397,-0.86353 0.25587,-1.6951 0.60767,-2.4307 0.67165,-1.3752 1.823,-2.3347 3.646,-3.0383 2.047,-0.76758 4.1258,-0.89552 5.8847,-0.89552 h 13.656 c 0.22387,0 0.38379,0.15992 0.38379,0.38379 v 3.87 c 0,0.22387 -0.1599,0.38379 -0.38379,0.38379 z" />
  </g>
</svg>
