<svg
   version="1.1"
   viewBox="0 0 290.00061 241.61609"
   id="svg105757">
  <path
      class="primary"
      d="m 147.16199,0.11333512 c -1.8124,0.0725 -4.8935,0.27186 -6.7844,0.44706 a 71.397,71.397 0 0 1 -13.2,0 l -1.7641,-0.28998 -0.39873,0.48935 c -0.3504,0.42893998 -0.50143,0.48330998 -1.3049,0.42288998 a 11.744,11.744 0 0 0 -3.3228,0.12687 11.08,11.08 0 0 0 -2.3259,0.57393 45.86,45.86 0 0 1 -10.971,2.042 34.683,34.683 0 0 0 -10.874004,2.2413 55.369,55.369 0 0 1 -6.6455,1.8124 113.88,113.88 0 0 0 -24.165,8.0349999 c -4.0658,1.758 -8.9533,3.6248 -11.992,4.6458 a 57.193,57.193 0 0 0 -10.687,5.7876 c -1.3835,0.93037 -3.2623,2.1024 -4.1806,2.5978 a 15.218,15.218 0 0 0 -2.6944,1.8849 22.123,22.123 0 0 1 -2.4165,1.9151 54.233,54.233 0 0 0 -5.6607,4.4283 42.289,42.289 0 0 1 -3.7275,2.8394 l -2.3863,1.5708 a 1.2083,1.2083 0 0 1 -0.78538,0.25374 c -0.71288,-0.27186 -2.2655,0.80954 -3.8181,2.6582 -2.5374,3.0207 -3.1355,3.4798 -4.6277,3.4798 h -0.91829 v 1.758 l -1.6431999,1.3351 a 35.408,35.408 0 0 0 -8.3854,11.201 l -0.60413996,1.1358 1.58279996,2.5857 a 35.487,35.487 0 0 1 1.903,3.4134 2.2474,2.2474 0 0 0 1.1418,1.3049 23.259,23.259 0 0 1 2.4165,1.8124 10.059,10.059 0 0 0 2.8273999,1.8124 3.3107,3.3107 0 0 1 1.746,1.2083 c 0.47122,0.65247 1.2445,0.99682 1.2445,0.5558 0,-0.09062 0.33832,-0.36248 0.74913,-0.60414 a 6.1984,6.1984 0 0 0 1.4499,-1.3533 c 0.60414,-0.76121 0.80954,-0.92433 1.3714,-0.97266 0.56184,-0.04833 0.85787,-0.26582 2.1688,-1.7641 a 42.833,42.833 0 0 1 6.3495,-5.8964 c 1.3774,-1.1116 3.365,-2.7911 4.4162,-3.7396 a 74.26,74.26 0 0 1 26.963,-10.699 c 4.5854,-0.94849 20.13,-3.4315 21.477,-3.4315 a 97.87,97.87 0 0 1 -11.545,20.19 8.6512,8.6512 0 0 0 -0.80954,2.1024 c -0.47727,1.7762 -0.86391,2.4709 -1.5285,2.7669 a 0.68871,0.68871 0 0 0 -0.4531,0.71892 0.876,0.876 0 0 1 -0.20541,0.63434 c -0.11478,0.0725 -0.16916,0.4531 -0.13291,0.88204 0.06645,0.68267 -0.05437,0.96058 -1.2506,2.7851 a 82.054,82.054 0 0 0 -7.1469,13.829 78.175,78.175 0 0 1 -7.6604,14.499005 16.614,16.614 0 0 0 -2.5011,5.1533 91.641,91.641 0 0 1 -5.3345,12.222 99.966,99.966 0 0 0 -4.9841,11.019 20.734,20.734 0 0 1 -1.3653,3.0932 0.97266,0.97266 0 0 0 -0.29603,0.54977 c 0,0.14499 -0.19936,0.38664 -0.44706,0.54976 a 1.9453,1.9453 0 0 0 -0.67663,1.2445 54.445,54.445 0 0 1 -5.5641,12.82 43.304,43.304 0 0 0 -5.0868,11.642 c -0.60414,2.1568 -0.60414,2.1628 -1.1176,2.1145 -0.51352,-0.0483 -1.2445,1.3231 -3.1838,7.0442 a 15.544,15.544 0 0 1 -3.4859,6.5247 c -0.99078,1.0754 -1.0633,1.2083 -1.027,1.9816 a 2.1568,2.1568 0 0 1 -0.48331,1.5768 c -0.80954,1.1539 -0.76121,1.897 0.12083,2.0843 1.1539,0.24165 1.5647,0.60414 2.0903,1.9997 a 9.8051,9.8051 0 0 0 1.2083,2.1749 3.4738,3.4738 0 0 1 0.54976,3.4194 c -0.16916,0.44102 -0.14499,0.47123 0.36248,0.47123 0.50747,0 0.57393,0.0906 0.74309,0.72496 0.34436,1.2747 1.1599,1.0693 1.8426,-0.45914 0.33227,-0.74309 0.41685,-0.81559 0.74309,-0.64643 a 2.8696,2.8696 0 0 0 1.0754,0.19333 c 1.2083,0 1.5466,0.16311 1.5466,0.72496 a 5.2499,5.2499 0 0 0 0.28394,1.323 l 0.28394,0.82767 h 1.5587 a 5.2258,5.2258 0 0 1 3.7638,1.1056 l 0.85787,0.64642 1.4741,-0.75517 c 1.7399,-0.89412 1.6312,-0.88203 2.3682,-0.27186 l 0.60414,0.48331 0.42289,-0.39873 c 0.4531,-0.41685 1.601,-0.83371 1.601,-0.60413 0,0.0846 -0.13895,0.2054 -0.30811,0.26582 -0.16916,0.0604 -0.25978,0.16311 -0.20541,0.21748 a 10.524,10.524 0 0 0 4.2289,-1.5043 c 0,-0.11479 -0.39269,0 -0.89412,0.23561 a 7.0925,7.0925 0 0 1 -1.607,0.54976 l -0.71288,0.11479 0.1027,-0.876 c 0.13291,-1.172 0.47122,-1.5043 1.2687,-1.2083 1.7339,0.60414 2.918,0.0846 4.5854,-1.9997 a 7.8538,7.8538 0 0 1 2.8455,-2.6038 1.9393,1.9393 0 0 0 0.83371,-0.82162 4.2289,4.2289 0 0 1 1.1479,-1.2083 4.4646,4.4646 0 0 0 1.1177,-1.0874 c 0.18124,-0.30207 0.39269,-0.54976 0.47122,-0.54976 0.27186,0 0.14499,0.43498 -0.24165,0.84579 a 0.81558,0.81558 0 0 0 0.22957,1.3714 c 1.0391,0.54977 8.1377,-6.5005 11.938,-11.847 a 56.354,56.354 0 0 0 7.6,-14.288 5.4674,5.4674 0 0 1 2.0903,-3.8906 c 2.0057,-1.8547 2.1749,-2.1688 4.7243,-8.621 a 29.548,29.548 0 0 1 1.9332,-4.0356 5.7937,5.7937 0 0 0 0.86391,-1.8124 9.7205,9.7205 0 0 1 2.6582,-3.951 l 1.3533,-1.4258 1.4137,1.8728 1.752,-0.24166 0.44102,0.9787 a 10.27,10.27 0 0 0 2.332,2.8213 129.75,129.75 0 0 1 9.6662,11.044 l 4.259204,5.1533 -1.311,-0.0665 c -1.492204,-0.0725 -1.891004,0.16312 -1.685504,0.98474 0.1752,0.68267 0.876,0.876 2.646104,0.74309 1.1176,-0.0846 1.5526,-0.0544 1.6614,0.10874 0.2054,0.32624 -1.9212,2.187 -4.941804,4.3256 a 10.832,10.832 0 0 0 -3.1596,2.779 5.256,5.256 0 0 1 -3.9329,2.8032 c -0.21749,0 -0.33832,0.23562 -0.42894,0.82767 -0.0725,0.4531 -0.19332,0.82766 -0.27186,0.82766 a 39.692,39.692 0 0 0 -5.7816,4.0477 27.047,27.047 0 0 1 -5.691,3.9752 13.672,13.672 0 0 0 -2.773,1.9091 90.669,90.669 0 0 1 -14.783,10.675 14.856,14.856 0 0 0 -3.5523,2.8334 23.078,23.078 0 0 1 -6.4945,4.7606 c -1.7218,0.88204 -1.9514,1.0633 -2.0057,1.5285 -0.05437,0.46518 -0.54372,0.84579 -3.9994,3.1294 -2.1688,1.4318 -4.8995,3.2865 -6.0776,4.1262 a 30.811,30.811 0 0 1 -3.1838,2.0359 6.7663,6.7663 0 0 0 -2.0299,1.613 43.214,43.214 0 0 1 -14.179,8.6754 l -2.2595,0.90017 -0.82767,1.2506 a 27.035,27.035 0 0 1 -7.5818999,6.9174 56.257,56.257 0 0 0 -6.9053,5.1533 0.99078,0.99078 0 0 1 -0.67663,0.30811 0.96058,0.96058 0 0 0 -0.65246996,0.2779 0.76121,0.76121 0 0 1 -0.46518,0.2779 c -0.54372,0 -0.60414,1.6855 -0.09666,2.2051 0.36248,0.36248 0.37456,0.36248 1.20829996,0 0.46518,-0.19937 2.0359,-0.78538 3.4919,-1.311 a 14.215,14.215 0 0 0 5.3042999,-2.5917 c 0.81558,-0.73704 1.9695,-1.3412 2.2534,-1.166 0.41081,0.25374 2.4709,-0.70684 3.5282,-1.6432 a 3.1294,3.1294 0 0 1 3.0207,-1.0995 c 0.5256,0.0906 0.72496,0.0665 0.64038,-0.0725 -0.23561,-0.3806 1.0633,-1.4378 2.3078,-1.8789 0.66455,-0.23561 1.9574,-0.77933 2.8696,-1.2083 2.1688,-1.0391 3.3046,-1.0633 4.4162,-0.10874 0.28998,0.25373 0.24165,0.36852 -0.66455,1.5889 -0.53768,0.72496 -1.3895,1.9574 -1.897,2.7367 -0.9062,1.4137 -0.92433,1.4258 -1.7097,1.4258 -1.4197,0 -3.0207,1.0754 -3.0207,2.0239 0,0.45914 1.311,1.0572 2.6038,1.2083 0.56185,0.0604 1.5103,0.19936 2.1084,0.31415 1.2083,0.22957 1.5164,0.0604 1.3291,-0.72496 -0.08458,-0.35644 0,-0.41686 0.42289,-0.41686 a 1.2445,1.2445 0 0 0 0.74913,-0.22353 c 0.1752,-0.16916 0.22353,-0.0483 0.22353,0.53768 0,0.82767 0.50143,1.2083 1.027,0.78538 a 0.60414,0.60414 0 0 1 0.48935,-0.14499 c 0.12083,0.0423 -0.04229,0.18124 -0.36852,0.31415 -0.9062,0.37456 -0.78538,0.91828 0.39873,1.8124 2.1266,1.6251 3.6248,1.7218 5.262,0.33832 l 0.60414,-0.48331 1.0029,0.38061 c 2.2413,0.84579 3.8423,0.25977 7.8538,-2.8696 3.5523,-2.779 5.2681,-3.6248 7.4309,-3.6248 1.2506,0 1.311,0 1.9695,-0.7008 a 2.8153,2.8153 0 0 1 1.9816,-0.93036 15.575,15.575 0 0 0 1.7641,-0.40478 c 0.74309,-0.27186 -0.56185,0.9787 -2.0964,2.0057 a 4.8331,4.8331 0 0 0 -2.2957,2.9663 l -0.11479,0.60413 h 0.96058 c 1.3351,0 2.0118,-0.33227 4.2712,-2.0903 3.6913,-2.8757 4.6639,-3.353 6.5065,-3.1778 1.1116,0.10271 1.3049,0.0725 1.601,-0.24769 a 9.6662,9.6662 0 0 1 4.7908,-2.187 10.053,10.053 0 0 0 3.9027,-1.5466 33.113,33.113 0 0 1 5.8057,-3.1657 8.8143,8.8143 0 0 0 2.9301,-1.8486 21.833,21.833 0 0 1 7.2013,-3.8604 24.353,24.353 0 0 0 7.2496,-4.1383 c 3.540204,-2.6159 4.893504,-3.1838 6.204504,-2.5978 l 0.73704,0.32624 -1.015,0.75517 a 13.14,13.14 0 0 1 -1.8909,1.1599 c -0.82162,0.3806 -2.187,1.6372 -2.187,2.0118 0,0.60413 1.172,0.37456 3.4738,-0.72497 a 30.938,30.938 0 0 0 11.974,-8.1014 37.704,37.704 0 0 1 9.6662,-6.6938 3.9933,3.9933 0 0 1 1.1418,-0.37457 5.9024,5.9024 0 0 0 1.9151,-1.0089 6.4159,6.4159 0 0 1 2.8878,-1.3654 1.4318,1.4318 0 0 0 0.76725,-0.64038 14.614,14.614 0 0 1 10.023,-3.1234 l 1.3835,0.0785 1.9695,1.4076 a 73.064,73.064 0 0 0 15.019,8.035 212.24,212.24 0 0 0 31.022,10.252 c 4.5189,1.2687 8.3492,2.3561 8.5062,2.4165 0.15708,0.0604 0.28999,0 0.28999,-0.24165 0,-0.876 0.77933,-0.99078 2.6884,-0.39873 1.2083,0.36852 1.2989,0.37456 1.8909,0.0967 0.68268,-0.32019 0.83371,-0.67059 0.28395,-0.67059 a 6.6455,6.6455 0 0 1 -2.9421,-1.8124 l -1.0874,-0.98474 0.65247,0.13291 a 6.8207,6.8207 0 0 1 1.3835,0.50143 4.67,4.67 0 0 0 3.1778,0.32624 c 0.24166,-0.19937 0.36248,-0.16312 0.74913,0.19332 0.38665,0.35644 0.731,0.44706 2.2716,0.55581 a 18.789,18.789 0 0 1 6.5549,1.9091 c 2.2534,0.93641 5.993,0.96058 5.2197,0.0302 a 0.8035,0.8035 0 0 0 -0.50143,-0.28998 0.23561,0.23561 0 0 1 -0.25374,-0.20541 c 0,-0.12083 0.12687,-0.15103 0.32623,-0.0665 a 11.358,11.358 0 0 0 7.4852,0 30.007,30.007 0 0 1 7.443,-1.0331 h 1.5889 l 0.33228,-0.74913 c 0.2779,-0.60413 0.53164,-0.83974 1.5103,-1.3049 0.88808,-0.42289 1.2506,-0.70684 1.4741,-1.2083 a 1.3351,1.3351 0 0 1 1.0814,-0.82162 c 4.8331,-1.2083 5.5399,-1.5345 6.8207,-2.8334 a 3.1657,3.1657 0 0 1 3.4677,-0.6283 c 0.60414,0.1752 1.3593,-0.90016 1.3654,-1.9514 0,-0.88807 0.19937,-1.1176 1.0331,-1.2083 1.6251,-0.18124 1.8124,-1.317 0.56185,-3.5221 a 10.307,10.307 0 0 1 -0.86392,-2.0118 c -0.16311,-0.64038 -0.32623,-0.88808 -0.60413,-0.94849 l -1.9755,-0.38665 a 32.321,32.321 0 0 1 -7.6242,-2.5736 30.871,30.871 0 0 0 -10.131,-2.9421 2.5736,2.5736 0 0 1 -1.9514,-0.91225 c -1.0089,-0.94849 -1.5708,-1.2566 -2.042,-1.1056 -0.23561,0.0725 -0.64642,-0.11479 -1.2506,-0.56789 a 14.372,14.372 0 0 0 -7.7752,-2.5555 29.844,29.844 0 0 1 -3.7094,-0.83975 4.0477,4.0477 0 0 0 -1.8668,-0.36248 5.2016,5.2016 0 0 1 -2.1507,-0.46519 c -1.0693,-0.33831 -3.5704,-0.99078 -5.5701,-1.4499 a 33.318,33.318 0 0 1 -7.9021,-2.5313 18.825,18.825 0 0 0 -3.5765,-1.166 37.765,37.765 0 0 1 -18.487,-8.5364 l -1.6795,-1.5828 0.93037,-0.46518 a 23.32,23.32 0 0 0 3.2261,-2.5615 171.79,171.79 0 0 1 16.493,-13.073 c 2.6944,-1.9453 6.9536,-5.0445 9.4668,-6.8811 a 49.847,49.847 0 0 1 4.7968,-3.2925 0.36248,0.36248 0 0 0 0.35644,-0.14499 c 0.0846,-0.13895 0.19333,-0.13895 0.36248,0 a 28.642,28.642 0 0 0 8.2283,-6.1863 45.141,45.141 0 0 1 6.9355,-5.3708 9.6118,9.6118 0 0 0 1.8426,-1.4137 45.153,45.153 0 0 1 9.497,-8.174 79.994,79.994 0 0 0 8.2162,-5.9326 c 1.897,-1.5587 2.477,-1.9514 2.6763,-1.8124 0.33832,0.2779 1.2083,-0.56185 1.2083,-1.172 0,-0.36248 0.21749,-0.54976 1.1599,-1.0089 a 14.59,14.59 0 0 0 2.5797,-1.8124 16.668,16.668 0 0 1 2.3259,-1.746 22.238,22.238 0 0 0 3.0207,-2.5736 c 1.2083,-1.1418 3.7758,-3.5402 5.7695,-5.3164 11.183,-9.980305 15.853,-15.949005 17.786,-22.722005 a 4.2289,4.2289 0 0 1 1.4801,-2.3803 c 1.4076,-1.3956 1.7822,-2.338 2.5011,-6.3434 a 15.345,15.345 0 0 1 1.5224,-5.6064 c 0.32019,-0.60414 0.60414,-1.172 0.64643,-1.2445 0.0423,-0.0725 -0.1752,-0.13895 -0.46519,-0.13895 -0.96661,0 -1.0754,-0.20541 -1.2083,-2.193 -0.13291,-1.9876 -0.19332,-2.1628 -1.8486,-5.0747 a 4.6579,4.6579 0 0 1 -0.70684,-2.8153 c -0.0846,-1.8668 0,-1.6553 -1.8124,-3.5825 -0.70683,-0.731 -1.3412,-0.88204 -1.7399,-0.40477 -0.21144,0.25374 -0.28998,0.22957 -0.71892,-0.15708 a 4.9177,4.9177 0 0 0 -1.3533,-0.76121 c -0.91224,-0.33227 -1.9453,-1.2083 -1.4318,-1.2083 a 3.3952,3.3952 0 0 0 0.9787,-0.35644 6.6455,6.6455 0 0 1 1.2566,-0.47727 c 0.75517,-0.16312 0.64038,-0.70684 -0.16312,-0.78538 -0.53164,-0.04833 -0.57393,-0.09062 -0.37456,-0.40477 0.44706,-0.70684 -0.50747,-0.89412 -5.1835,-1.0391 l -3.5584,-0.10874 -0.1027,-0.51352 c -0.0967,-0.49539 -0.13291,-0.50747 -0.71288,-0.32019 a 24.026,24.026 0 0 1 -3.6792,0.23561 32.708,32.708 0 0 0 -3.6731,0.18124 c -0.5558,0.13291 -0.60414,0.10874 -0.60414,-0.28998 v -0.43498 h -2.477 a 7.4127,7.4127 0 0 1 -4.972,-1.1056 l -0.60414,-0.44706 -0.53768,0.44706 a 3.9571,3.9571 0 0 1 -1.3231,0.64642 c -1.8426,0.45914 -2.7428,1.166 -2.193,1.7097 0.36852,0.36852 0.21749,0.44706 -0.75517,0.40477 a 31.693,31.693 0 0 0 -10.21,4.9116 7.2496,7.2496 0 0 1 -1.0995,1.5285 7.5336,7.5336 0 0 0 -1.0874,1.4741 7.0442,7.0442 0 0 1 -1.758,1.6855 c -0.83371,0.60414 -2.4165,1.9091 -3.4496,2.8515 a 88.421,88.421 0 0 1 -7.7329,6.4038 51.726,51.726 0 0 0 -4.4041,3.655 12.844,12.844 0 0 1 -5.1654,3.4617 17.018,17.018 0 0 0 -3.6248,3.1234 33.56,33.56 0 0 1 -4.096,3.6248 12.53,12.53 0 0 0 -1.8486,1.4076 1.8124,1.8124 0 0 1 -0.90017,0.60414 0.49539,0.49539 0 0 0 -0.4531,0.36852 0.50143,0.50143 0 0 1 -0.53164,0.36852 1.021,1.021 0 0 0 -0.72496,0.41685 20.819,20.819 0 0 1 -4.4766,3.9994 17.677,17.677 0 0 0 -4.4344,3.8423 30.05,30.05 0 0 1 -6.3072,4.5552 14.644,14.644 0 0 0 -4.9781,4.4223 6.3434,6.3434 0 0 1 -1.0814,1.3533 c -0.94849,0 -3.8,2.483005 -10.337,9.007705 a 243.11,243.11 0 0 1 -33.53,28.654 c -3.2986,2.4165 -3.655,2.6099 -3.7094,2.2293 -0.0544,-0.38061 -0.50143,-0.71892 -1.4862,-1.3835 a 45.159,45.159 0 0 1 -9.8897,-9.1647 110.92,110.92 0 0 0 -9.062,-10.27 c -2.0722,-2.1024 -3.7638,-3.9027 -3.7638,-3.9994 0,-0.22353 -0.36853,-0.145 7.159,-1.4862 a 135.72,135.72 0 0 0 32.255,-8.5062 c 0.60414,-0.26582 0.66455,-0.25978 1.0754,0.18124 l 0.42894,0.45914 0.96661,-0.82162 a 32.273,32.273 0 0 1 9.6118,-4.996205 34.671,34.671 0 0 0 11.672,-6.6153 c 1.4016,-1.0391 3.1294,-2.2897 3.8423,-2.7851 a 54.771,54.771 0 0 0 6.5005,-5.6003 c 1.5224,-1.4439 3.5584,-3.214 4.525,-3.9269 1.5949,-1.2083 1.746,-1.3533 1.6735,-1.8124 -0.0906,-0.60414 1.2083,-1.3533 2.1266,-1.1781 0.47122,0.09062 0.49539,0.06645 0.40477,-0.49539 -0.0906,-0.56185 0.0725,-0.77934 1.456,-2.3803 a 33.832,33.832 0 0 0 2.5555,-3.4013 c 0.5558,-0.88808 2.1507,-3.353 3.5402,-5.4795 a 39.082,39.082 0 0 0 3.2502,-5.6607 53.116,53.116 0 0 1 3.6731,-7.2496 14.209,14.209 0 0 0 2.5253,-9.062 c -0.0544,-2.1326 -0.0665,-2.2111 -0.47123,-2.2655 -0.40477,-0.05437 -0.41685,0 -0.41685,0.50747 0,0.50747 -0.23562,0.74913 -0.44706,0.41081 a 59.658,59.658 0 0 1 0.0362,-8.766 l 0.21748,-0.36852 v 0.36852 c 0.13291,3.063 0.4954,3.9571 1.7762,4.3921 1.2808,0.43498 1.317,0.50143 0.90016,-2.7549 -0.10874,-0.85183 -0.0846,-0.94849 0.27186,-1.0391 0.4954,-0.12687 0.5256,-1.0693 0.10271,-3.075 a 9.9139,9.9139 0 0 1 -0.24166,-2.048 c 0.0423,-0.60414 -0.0785,-0.80954 -0.84579,-1.6553 a 14.312,14.312 0 0 1 -2.918,-4.6156 11.11,11.11 0 0 0 -5.1895,-6.4461 92.97,92.97 0 0 0 -26.401,-10.4459999 c -3.2744,-0.60414 -6.9174,-1.3774 -12.723,-2.7549 a 41.601,41.601 0 0 0 -8.6573,-1.38949998 c -1.1781,-0.05437 -2.4709,-0.12083 -2.8817,-0.15103 -0.41081,-0.03021 -2.2474,0 -4.09,0.07854 m 60.142,29.81399988 c 0,1.3895 -0.85184,1.021 -1.2083,-0.51956 -0.11478,-0.51352 -0.0785,-0.60414 0.30207,-0.65247 0.67059,-0.10874 0.89412,0.18728 0.89412,1.166 m -57.018,4.5068 a 6.7784,6.7784 0 0 0 5.0022,0.5558 l 0.83974,-0.25374 0.11479,1.4922 c 0.15103,1.9091 0.15708,8.8204 0,9.207 -0.0725,0.18124 -0.33832,0.28998 -0.71892,0.28998 a 4.0356,4.0356 0 0 0 -1.2747,0.2779 4.1202,4.1202 0 0 1 -1.311,0.2779 c -0.56185,0 -0.69476,0.09666 -1.0754,0.77329 a 3.8665,3.8665 0 0 1 -1.0814,1.2083 c -1.3956,0.876 -1.5406,1.0512 -1.5406,1.8668 v 0.76725 l -1.9212,1.0149 a 84.313,84.313 0 0 0 -12.808,8.4579 65.277,65.277 0 0 1 -14.094,8.5908 c -1.2083,0.48331 -1.4982,0.7008 -1.6976,1.166 a 3.945,3.945 0 0 1 -5.1472,1.8487 c -0.68872,-0.3504 -0.68268,-0.56789 0.12687,-2.9784 a 45.775,45.775 0 0 1 7.1167,-12.771 c 1.2687,-1.5587 1.3049,-1.6674 0.77329,-2.4588 -0.53163,-0.79142 -0.47726,-1.021 0.39269,-2.4165 a 48.089,48.089 0 0 0 3.6248,-7.455 25.978,25.978 0 0 1 5.5641,-9.2433 17.937,17.937 0 0 1 5.8601,0.47727 c 5.8601,1.0452 8.1498,0.83371 9.6662,-0.91224 0.76121,-0.86996 0.74913,-0.86996 3.5765,0.26582 m 129.25,9.8232 c 0.0665,0.1027 0,0.23561 -0.18124,0.29603 -0.35644,0.13291 -0.55581,0 -0.38061,-0.28998 a 0.30811,0.30811 0 0 1 0.56789,0 m -33.016,161.650005 c 0.0362,0.10874 -0.1027,0.24165 -0.31415,0.29603 -0.21145,0.0544 -0.38061,0 -0.38061,-0.12687 0,-0.47727 0.54372,-0.60414 0.69476,-0.16312"
      stroke-width="6.0414"
      id="path105755"
   />
</svg>
