<svg
  version="1.1"
  viewBox="0 0 176.29659 172.58066"
  xml:space="preserve"
  id="svg103345">
  <path
     d="m 52.604231,15.65186 1.948,-3.3826 5.9185,-10.276 c 0.69465,-1.208 1.9826,-1.9533 3.3746,-1.9546 L 76.863331,0.02533 76.848631,0 l 11.296,0.012 11.294,-0.012 -0.0133,0.02533 13.015999,0.01333 c 1.3933,0.0013 2.6813,0.74665 3.3772,1.9546 l 5.9172,10.276 1.948,3.3826 c 0.69599,1.208 0.69332,2.6946 -0.004,3.9012 l -14.988,25.894 -9.303799,16.116 c -0.69731,1.2066 -1.9853,1.9506 -3.3786,1.9506 h -15.73 c -1.3946,0 -2.6826,-0.74399 -3.3786,-1.9506 l -9.3051,-16.116 -14.988,-25.894 c -0.69865,-1.2066 -0.69998,-2.6933 -0.004,-3.9012"
     id="top" />
  <path
     d="m 175.0125,65.13606 -36.632,63.29 -22.741,39.388 c -1.704,2.9506 -4.8506,4.7666 -8.2571,4.7666 H 68.912401 c -3.4052,0 -6.5545,-1.816 -8.2571,-4.7666 l -22.741,-39.388 -36.6319998,-63.29 c -1.70660003,-2.9479 -1.70930003,-6.5825 -0.01067,-9.5344 l 19.2249998,-33.383 c 1.7013,-2.9519 4.8479,-4.7732 8.2545,-4.7759 l 8.7224,-0.0093 -3.8052,6.6092 -3.1599,5.4839 c -1.128,1.9586 -1.1253,4.3706 0.0067,6.3278 l 24.306,41.992 15.088,26.133 c 1.1306,1.9586 3.2186,3.1639 5.4799,3.1639 h 25.517999 c 2.2613,0 4.3506,-1.2053 5.4799,-3.1639 l 15.089,-26.133 24.305,-41.992 c 1.132,-1.9573 1.1346,-4.3692 0.007,-6.3278 l -3.1599,-5.4839 -3.8052,-6.6092 8.7224,0.0093 c 3.4079,0.0027 6.5532,1.824 8.2531,4.7759 l 14.465,25.115 4.7599,8.2678 c 1.7013,2.9519 1.6973,6.5865 -0.009,9.5344"
     id="bottom" />
</svg>
