
<svg
   version="1.1"
   viewBox="0 0 282.0372 111.515"
   xml:space="preserve"
   id="svg102118"
>
   <g stroke-width="1.1801" id="g102116" transform="translate(-8.9828,-3.5518)">
      <path
         class="primary"
         d="m 96.307,69.753 c 8.3784,11.447 18.881,12.037 18.881,12.037 h 18.291 l 8.2604,-12.037 z"
         id="path102106"
      />
      <path
         class="primary"
         d="m 73.414,51.698 c 8.3784,11.447 18.881,12.037 18.881,12.037 h 53.575 l 8.2604,-12.037 z"
         id="path102108"
      />
      <path
         class="primary"
         d="M 50.639,33.643 C 59.0174,45.09 69.52,45.68 69.52,45.68 h 88.741 l 8.2604,-12.037 z"
         id="path102110"
      />
      <path
         class="primary"
         d="m 8.9828,3.5518 c 16.875,22.893 37.762,24.073 37.762,24.073 h 131.22 l -43.544,63.369 c -8.7324,12.627 12.627,24.073 12.627,24.073 l 60.183,-87.442 c 0,0 20.887,-1.1801 37.762,-24.073 z"
         id="path102112"
      />
      <path
         class="primary"
         d="m 291.02,3.5518 h -29.266 c -16.875,22.893 -37.762,24.073 -37.762,24.073 h 21.241 l -43.544,63.369 c -8.7324,12.627 12.627,24.073 12.627,24.073 z"
         id="path102114"
      />
</g>
</svg>
