<svg
   viewBox="0 0 257.25977 292.72657"
   version="1.1"
   id="svg5"
   xmlns="http://www.w3.org/2000/svg"
   xmlns:svg="http://www.w3.org/2000/svg">
  <g
     id="layer1"
     transform="translate(-94.777344,48.757812)">
    <path
       id="background"
       class="background"
       d="M 223.4082,-48.757812 94.777344,-4.4199219 V 47.458984 c 0,82.832876 1.900489,125.891296 46.564456,156.812496 2.96163,2.03916 6.13794,4.05859 9.44922,6.04102 2.98095,1.78467 6.07726,3.54373 9.23437,5.26172 5.67947,3.09057 11.57439,6.06178 17.35547,8.83203 4.62604,2.21677 9.18793,4.31013 13.52539,6.23828 8.67314,3.85551 16.46424,7.06059 22.08398,9.30274 5.60423,2.23595 2.21827,0.98437 9.10547,3.53515 l 1.3125,0.48633 1.3125,-0.48633 c 6.88695,-2.55078 3.50144,-1.2992 9.10547,-3.53515 5.61956,-2.24215 13.40915,-5.44723 22.08203,-9.30274 4.33733,-1.92815 8.90142,-4.02151 13.52735,-6.23828 5.78093,-2.77025 11.67414,-5.74146 17.35351,-8.83203 3.15706,-1.71799 6.25346,-3.47706 9.23438,-5.26172 3.31123,-1.98243 6.48743,-4.00222 9.45703,-6.04688 44.65599,-30.91569 46.55664,-73.97376 46.55664,-156.806636 V -4.4199219 Z"
      />
    <path
       id="logo-path"
       class="primary"
       d="M 27.100158,0.70002236 0.70002236,9.7999001 V 20.199878 c 0,17.499983 0.40007664,26.200042 9.50006764,32.500036 6.099994,4.199995 16.900068,8.199967 16.900068,8.199967 0,0 10.799661,-3.999972 16.899655,-8.199967 C 53.099804,46.39992 53.49988,37.699861 53.49988,20.199878 V 9.7999001 Z M 28.600147,3.9998328 50.900092,11.50019 v 9.399711 c 0,15.79984 -0.400237,23.700173 -8.600157,29.400113 L 33.399946,39.000125 c -6.29994,-2.39998 -3.999833,-12.100269 -3.999833,-12.100269 -0.2,3.69997 1.899766,6.200257 1.899766,6.200257 l 4.700268,1.899766 c 0,0 2.099844,3.699976 2.499844,5.999956 0.79999,0.39999 3.29981,0.100357 3.29981,0.100357 l -2.199598,-3.600056 4.599911,2.599788 3.199866,-3.7 -6.299788,-12.1998 c -0.4,-1.49998 0,-3.200279 0,-3.200279 -0.5,-0.2 -8.500213,-5.799654 -8.500213,-5.799654 4.49996,-3.79997 1.300101,-7.500358 1.300101,-7.500358 -2.39998,2.69997 -5.100235,5.500021 -5.500235,5.900011 -0.99999,-3.39996 -0.699688,-6.8000392 0.200302,-9.6000112 z m -6.300202,1.1002121 c 0.7,3.6999741 1.700208,7.1000881 2.600201,9.5000671 -0.999993,0.4 -2.000342,0.999878 -3.100335,1.699878 -1.399986,-2.299986 -3.299862,-5.700151 -4.699855,-9.4001236 z M 11.700079,8.8000451 c 2.299982,3.7999759 5.300012,7.3000799 7.4,9.5000679 -0.799994,0.699994 -1.599905,1.499961 -2.399899,2.299955 C 13.700198,18.50008 9.1000475,14.900144 5.8000673,10.800168 Z M 3.2998104,16.900068 c 3.7999886,2.899991 8.4001996,5.099791 11.5001906,6.299788 -0.6,0.899997 -1.199936,1.900037 -1.599933,2.900034 -2.599994,-0.4 -6.3002684,-1.199794 -9.9002576,-2.599788 v -2.3999 z m 32.4000906,4.799799 2.100068,1.400045 0.999855,1.200156 c 0,0 -1.399774,0.4 -1.899766,0 -0.5,-0.399992 -1.200157,-2.600201 -1.200157,-2.600201 z M 3.4001676,28.999923 c 3.1999936,0.4 6.1998044,0.400246 8.4997994,0.300246 -0.399998,1.099998 -0.599968,2.299701 -0.799966,3.499699 -1.899997,0.499998 -4.6000064,1.100045 -7.4000008,1.400045 -0.1999996,-1.599998 -0.1998328,-3.299992 -0.2998326,-5.19999 z m 39.2000134,6.0999 1.299687,1.000268 1.499989,0.600078 -2.099654,0.09994 z m -31.90037,1.700291 c 0,1.39999 0.100301,2.800083 0.200301,4.300078 -1.2999925,0.999995 -2.9002769,2.09982 -4.7002679,3.29981 -0.799996,-1.49999 -1.3998235,-3.10011 -1.7998215,-5.0001 2.399988,-0.8 4.5997959,-1.799793 6.2997884,-2.599788 z m 1.100212,9.199822 c 0.499996,1.699992 0.999881,3.600186 1.699877,5.600178 -0.599996,-0.399996 -1.199881,-0.700212 -1.699877,-1.100212 -0.799996,-0.599996 -1.599959,-1.299769 -2.2999555,-1.899765 0.8999965,-0.9 1.6999595,-1.800205 2.2999555,-2.600201 z"
       transform="matrix(4.7292016,0,0,4.7292016,95.245883,-48.070629)"
       style="display:inline" />
  </g>
</svg>
