<svg
   viewBox="0 0 255.84981 291.31882"
   version="1.1"
   id="svg5">
  <g
     id="layer1"
     transform="translate(-95.245883,48.070629)">
    <path
       d="m 104.60016,2.375634 116.59434,-40.089745 119.60107,41.42607 -0.33408,116.928421 -16.0359,48.44178 -16.70406,19.37671 -83.18622,47.10545 -89.53376,-45.76913 -22.71753,-39.0875 -8.35203,-59.132369 z"
       id="background" class="background" />
    <path
       id="logo-path"
       class="primary"
       d="M 27.100158 0.70002236 L 0.70002236 9.7999001 L 0.70002236 20.199878 C 0.70002236 37.699861 1.100099 46.39992 10.20009 52.699914 C 16.300084 56.899909 27.100158 60.899881 27.100158 60.899881 C 27.100158 60.899881 37.899819 56.899909 43.999813 52.699914 C 53.099804 46.39992 53.49988 37.699861 53.49988 20.199878 L 53.49988 9.7999001 L 27.100158 0.70002236 z M 28.600147 3.9998328 L 50.900092 11.50019 L 50.900092 20.899901 C 50.900092 36.699741 50.499855 44.600074 42.299935 50.300014 L 33.399946 39.000125 C 27.100006 36.600145 29.400113 26.899856 29.400113 26.899856 C 29.200113 30.599826 31.299879 33.100113 31.299879 33.100113 L 36.000147 34.999879 C 36.000147 34.999879 38.099991 38.699855 38.499991 40.999835 C 39.299981 41.399825 41.799801 41.100192 41.799801 41.100192 L 39.600203 37.500136 L 44.200114 40.099924 L 47.39998 36.399924 L 41.100192 24.200124 C 40.700192 22.700144 41.100192 20.999845 41.100192 20.999845 C 40.600192 20.799845 32.599979 15.200191 32.599979 15.200191 C 37.099939 11.400221 33.90008 7.699833 33.90008 7.699833 C 31.5001 10.399803 28.799845 13.199854 28.399845 13.599844 C 27.399855 10.199884 27.700157 6.7998048 28.600147 3.9998328 z M 22.299945 5.1000449 C 22.999945 8.800019 24.000153 12.200133 24.900146 14.600112 C 23.900153 15.000112 22.899804 15.59999 21.799811 16.29999 C 20.399825 14.000004 18.499949 10.599839 17.099956 6.8998664 L 22.299945 5.1000449 z M 11.700079 8.8000451 C 14.000061 12.600021 17.000091 16.100125 19.100079 18.300113 C 18.300085 19.000107 17.500174 19.800074 16.70018 20.600068 C 13.700198 18.50008 9.1000475 14.900144 5.8000673 10.800168 L 11.700079 8.8000451 z M 3.2998104 16.900068 C 7.099799 19.800059 11.70001 21.999859 14.800001 23.199856 C 14.200001 24.099853 13.600065 25.099893 13.200068 26.09989 C 10.600074 25.69989 6.8997996 24.900096 3.2998104 23.500102 L 3.2998104 21.100202 L 3.2998104 16.900068 z M 35.699901 21.699867 L 37.799969 23.099912 L 38.799824 24.300068 C 38.799824 24.300068 37.40005 24.700068 36.900058 24.300068 C 36.400058 23.900076 35.699901 21.699867 35.699901 21.699867 z M 3.4001676 28.999923 C 6.6001612 29.399923 9.599972 29.400169 11.899967 29.300169 C 11.499969 30.400167 11.299999 31.59987 11.100001 32.799868 C 9.200004 33.299866 6.4999946 33.899913 3.7000002 34.199913 C 3.5000006 32.599915 3.5001674 30.899921 3.4001676 28.999923 z M 42.600181 35.099823 L 43.899868 36.100091 L 45.399857 36.700169 L 43.300203 36.800114 L 42.600181 35.099823 z M 10.699811 36.800114 C 10.699811 38.200104 10.800112 39.600197 10.900112 41.100192 C 9.6001195 42.100187 7.9998351 43.200012 6.1998441 44.400002 C 5.3998481 42.900012 4.8000206 41.299892 4.4000226 39.399902 C 6.8000106 38.599902 8.9998185 37.600109 10.699811 36.800114 z M 11.800023 45.999936 C 12.300019 47.699928 12.799904 49.600122 13.4999 51.600114 C 12.899904 51.200118 12.300019 50.899902 11.800023 50.499902 C 11.000027 49.899906 10.200064 49.200133 9.5000675 48.600137 C 10.400064 47.700137 11.200027 46.799932 11.800023 45.999936 z "
       transform="matrix(4.7292016,0,0,4.7292016,95.245883,-48.070629)" />
  </g>
</svg>
