<svg viewBox="0 0 489.25073 529.1286" version="1.1" id="svg5" xml:space="preserve">
  <g id="layer1" transform="translate(132.55109,138.51544)">
    <path
      d="m -5.7996483,390.09086 -0.5451951,-0.5452 v -46.51865 c 0,-40.27533 0.05248,-46.69377 0.3910197,-47.82344 0.3275648,-1.09305 6.62839971,-9.09765 38.8276027,-49.32667 35.973832,-44.94496 38.529823,-48.07273 39.891792,-48.81563 l 1.455208,-0.79375 h 37.967711 37.9677 l 1.05834,0.57214 c 0.58208,0.31467 1.43507,0.96951 1.89553,1.45521 0.46045,0.48569 17.87437,22.19526 38.69761,48.24349 31.58114,39.50552 37.92588,47.57682 38.25499,48.66521 0.34327,1.13512 0.39457,7.35446 0.39457,47.82344 v 46.51865 l -0.5452,0.5452 c -1.32365,1.32365 2.06799,5.40168 -58.76716,-70.65979 -31.25065,-39.07235 -57.15137,-71.24835 -57.55715,-71.50225 -0.863,-0.53998 -1.88724,-0.59237 -2.86563,-0.1466 -0.4253,0.19378 -16.925915,20.61408 -42.278241,52.32135 -77.3546745,96.74483 -72.2023719,90.35971 -72.9867265,90.45031 -0.449961,0.052 -0.9120214,-0.11827 -1.2567708,-0.46302 z"
      id="bottom" />
    <path 
      d="m 127.12335,-10.621026 c -0.23466,-0.358148 -0.35828,-0.865365 -0.27471,-1.127152 0.0836,-0.261787 22.86887,-28.872382 50.63401,-63.579103 39.93727,-49.922059 50.61805,-63.119289 51.13324,-63.180489 0.35817,-0.0426 0.88921,0.0967 1.18012,0.30941 0.52541,0.38419 0.52893,0.69923 0.52893,47.446365 0,45.199479 -0.0193,47.102453 -0.48887,48.143731 -0.76361,1.693336 -24.16648,30.756121 -25.52919,31.70334 l -1.14724,0.797438 -37.8048,0.06881 -37.80482,0.068819 z"
      id="top-small" />
    <path 
      d="M 73.706911,55.511268 C 73.133244,55.306907 72.359338,54.919737 71.987119,54.650886 71.614903,54.382037 54.013236,32.557668 32.8723,6.1522903 0.07609382,-34.810715 -5.6232612,-42.052999 -5.9574961,-43.189516 c -0.3405717,-1.158053 -0.3828097,-7.424418 -0.3233949,-47.977073 0.067823,-46.292821 0.072334,-46.647961 0.5972678,-47.031791 0.2909093,-0.21271 0.8266906,-0.35194 1.1906249,-0.30939 0.530397,0.062 15.7684833,18.95153 76.7934023,95.195074 41.872436,52.3147421 76.478056,95.626297 76.901336,96.247902 0.84677,1.243457 0.82925,1.956816 -0.0634,2.582071 -0.81564,0.571278 -73.827206,0.565462 -75.431409,-0.006 z"
      id="top-large" />
    <path 
      d="m 279.63544,261.27589 c -1.33337,-0.69654 -3.92287,-3.87721 -43.56584,-53.51198 -23.18152,-29.02427 -42.47038,-53.30717 -42.86414,-53.96201 l -0.71593,-1.19063 V 126.02065 99.430019 l 0.56335,-0.953138 c 0.6501,-1.09995 83.28196,-104.6307404 84.72982,-106.1593892 0.52856,-0.5580354 1.43724,-1.2724104 2.01932,-1.5875001 l 1.05834,-0.5728944 37.28103,-0.069749 c 40.95081,-0.076618 38.52214,-0.1689743 38.52206,1.4649106 -2e-5,0.5626974 -11.61171,15.2361272 -52.75439,66.6645331 -29.0149,36.268664 -52.82737,66.133328 -52.91664,66.365908 -0.33065,0.86171 -0.14883,2.64736 0.35346,3.47114 0.28254,0.46341 24.09462,30.31802 52.91568,66.34356 37.36274,46.70245 52.40192,65.68562 52.40192,66.14427 0,1.57843 2.68534,1.47481 -38.22097,1.47481 h -37.38943 z"
      id="right" />
    <path 
      d="m -131.95797,261.60818 c -0.35257,-0.24696 -0.59312,-0.69096 -0.59312,-1.09479 0,-0.5066 13.37926,-17.40676 52.615331,-66.46157 28.938434,-36.18021 52.760855,-66.06082 52.938716,-66.40134 0.482859,-0.92443 0.398875,-2.84977 -0.16169,-3.70672 -0.266787,-0.40785 -24.089208,-30.226926 -52.938713,-66.264612 -36.612364,-45.73475 -52.453644,-65.7126498 -52.453644,-66.150821 0,-0.3452654 0.21908,-0.8260186 0.48684,-1.0683373 0.45015,-0.4073869 3.31733,-0.4353957 38.054645,-0.3717369 l 37.567814,0.068845 1.280617,0.7937501 c 1.065083,0.6601566 8.379071,9.67770997 43.456325,53.5781281 25.006566,31.296598 42.439157,53.33706 42.822872,54.142036 l 0.647171,1.357658 -0.07117,26.2913 c -0.06508,24.04359 -0.109146,26.35917 -0.515435,27.08505 -0.244348,0.43656 -7.923879,10.15527 -17.065624,21.59709 -9.141746,11.44186 -27.81323,34.82452 -41.492188,51.96147 -13.678958,17.13699 -25.393213,31.74273 -26.031673,32.45724 -0.638464,0.7145 -1.650495,1.56106 -2.248959,1.88124 l -1.088117,0.58213 -37.308437,0.0697 c -33.548611,0.0627 -37.368211,0.0278 -37.901561,-0.34573 z"
      id="left" />
  </g>
</svg>